<svg width="52" height="52" viewBox="0 0 52 52" fill="none" xmlns="http://www.w3.org/2000/svg">
<circle cx="26" cy="26" r="26" fill="#0D2B80"/>
<path d="M12.0712 20.2321C12.1368 18.7443 12.3774 17.7215 12.7221 16.8352C13.0777 15.8945 13.6248 15.0522 14.3416 14.352C15.0419 13.641 15.8899 13.0884 16.8199 12.7384C17.7115 12.3938 18.7292 12.1532 20.2172 12.0876C21.7164 12.0165 22.1923 12 25.9946 12C29.7968 12 30.2727 12.0165 31.7663 12.082C33.2544 12.1476 34.2774 12.3884 35.1636 12.7329C36.1048 13.0884 36.9472 13.6354 37.6475 14.352C38.3587 15.0522 38.9112 15.9 39.2614 16.8299C39.6061 17.7215 39.8468 18.7388 39.9124 20.2265C39.9835 21.7254 40 22.2012 40 26.0028C40 29.8043 39.9835 30.2801 39.9179 31.7735C39.8523 33.2612 39.6115 34.284 39.2668 35.1703C38.9112 36.1111 38.3587 36.9533 37.6475 37.6535C36.9472 38.3646 36.0992 38.9171 35.1692 39.2671C34.2774 39.6118 33.2599 39.8524 31.7717 39.918C30.2783 39.9838 29.8022 40 25.9999 40C22.1976 40 21.7217 39.9838 20.2281 39.918C18.7401 39.8524 17.7171 39.6118 16.8308 39.2671C14.9487 38.5396 13.4607 37.0518 12.733 35.1703C12.3885 34.2787 12.1477 33.2612 12.0821 31.7735C12.0165 30.2801 12 29.8043 12 26.0028C12 22.2012 12.0056 21.7254 12.0712 20.2321ZM14.5931 31.6641C14.6534 33.0315 14.8831 33.7699 15.0746 34.2622C15.5452 35.482 16.5135 36.4502 17.7335 36.9207C18.2259 37.1121 18.9698 37.3418 20.3322 37.4018C21.8093 37.4676 22.2523 37.4839 25.989 37.4839C29.7256 37.4839 30.1742 37.4676 31.646 37.4018C33.0137 37.3418 33.7523 37.1121 34.2447 36.9207C34.8518 36.6963 35.4045 36.3408 35.853 35.8758C36.3181 35.4218 36.6737 34.8748 36.8981 34.2678C37.0895 33.7755 37.3193 33.0315 37.3793 31.6696C37.4451 30.1928 37.4614 29.7496 37.4614 26.0137C37.4614 22.2777 37.4451 21.8293 37.3793 20.358C37.3193 18.9905 37.0895 18.2521 36.8981 17.7598C36.6737 17.1525 36.3181 16.6002 35.8475 16.1515C35.3936 15.6866 34.8465 15.331 34.2391 15.1069C33.7467 14.9155 33.0026 14.6858 31.6405 14.6255C30.1633 14.5599 29.7201 14.5435 25.9837 14.5435C22.2414 14.5435 21.7984 14.5599 20.3266 14.6255C18.9589 14.6858 18.2203 14.9155 17.728 15.1069C17.1208 15.331 16.5682 15.6866 16.1196 16.1515C15.6546 16.6056 15.299 17.1525 15.0746 17.7598C14.8831 18.2521 14.6534 18.9958 14.5931 20.358C14.5275 21.8348 14.511 22.2777 14.511 26.0137C14.511 29.7496 14.5275 30.1872 14.5931 31.6641Z" fill="white"/>
<path d="M25.9998 18.7588C29.9976 18.7588 33.2412 22.0022 33.2412 26.0002C33.2412 29.9982 29.9976 33.2415 25.9998 33.2415C22.0018 33.2415 18.7585 29.9982 18.7585 26.0002C18.7585 22.0022 22.0018 18.7588 25.9998 18.7588ZM25.9998 30.6975C28.5934 30.6975 30.6971 28.5939 30.6971 26.0002C30.6971 23.4064 28.5934 21.3029 25.9998 21.3029C23.4061 21.3029 21.3025 23.4064 21.3025 26.0002C21.3025 28.5939 23.4061 30.6975 25.9998 30.6975V30.6975Z" fill="white"/>
<path d="M16.8276 18.2759C16.8276 19.0757 17.476 19.7242 18.2759 19.7242C19.0757 19.7242 19.7241 19.0757 19.7241 18.2759C19.7241 17.4759 19.0757 16.8276 18.2759 16.8276C17.476 16.8276 16.8276 17.4759 16.8276 18.2759V18.2759Z" fill="white"/>
</svg>
