<svg width="52" height="52" viewBox="0 0 52 52" fill="none" xmlns="http://www.w3.org/2000/svg">
<circle cx="26" cy="26" r="26" fill="#0D2B80"/>
<path fill-rule="evenodd" clip-rule="evenodd" d="M35.2854 16.6761C32.8296 14.2174 29.5635 12.8628 26.0841 12.8613C18.9144 12.8613 13.0793 18.6963 13.0764 25.8679C13.0754 28.1605 13.6743 30.3984 14.8127 32.371L12.9673 39.1113L19.8629 37.3025C21.7629 38.3389 23.902 38.8851 26.0788 38.8857H26.0843C33.2532 38.8857 39.0889 33.0503 39.0917 25.8783C39.0931 22.4026 37.7414 19.1346 35.2854 16.6761ZM26.0841 36.689H26.0796C24.1397 36.6882 22.2371 36.1669 20.577 35.182L20.1823 34.9476L16.0904 36.0211L17.1826 32.0315L16.9255 31.6225C15.8432 29.9011 15.2717 27.9115 15.2727 25.8687C15.2749 19.9078 20.125 15.0582 26.0884 15.0582C28.9762 15.0592 31.6908 16.1852 33.7319 18.2288C35.7731 20.2723 36.8965 22.9887 36.8956 25.8775C36.893 31.8389 32.0432 36.689 26.0841 36.689V36.689ZM32.0144 28.5918C31.6895 28.429 30.0915 27.643 29.7935 27.5343C29.4958 27.4259 29.2788 27.3719 29.0624 27.6971C28.8456 28.0224 28.2229 28.7546 28.0332 28.9713C27.8435 29.1883 27.6541 29.2155 27.329 29.0527C27.0039 28.8901 25.9567 28.5468 24.7152 27.4395C23.7491 26.5777 23.0969 25.5134 22.9072 25.1881C22.7178 24.8626 22.9056 24.7036 23.0498 24.5248C23.4016 24.0879 23.7539 23.6299 23.8622 23.4131C23.9707 23.1961 23.9164 23.0063 23.835 22.8437C23.7539 22.681 23.1039 21.0813 22.8331 20.4303C22.5691 19.7968 22.3014 19.8824 22.1018 19.8724C21.9124 19.863 21.6956 19.8611 21.4788 19.8611C21.2622 19.8611 20.9101 19.9423 20.6121 20.2679C20.3142 20.5933 19.4747 21.3794 19.4747 22.9792C19.4747 24.579 20.6393 26.1244 20.8017 26.3414C20.9642 26.5583 23.0937 29.8412 26.3539 31.2488C27.1294 31.584 27.7347 31.7838 28.2068 31.9336C28.9855 32.181 29.6938 32.146 30.2539 32.0624C30.8785 31.969 32.1767 31.2761 32.4478 30.517C32.7185 29.7577 32.7185 29.107 32.6372 28.9713C32.5561 28.8358 32.3393 28.7546 32.0144 28.5918V28.5918Z" fill="white"/>
<path fill-rule="evenodd" clip-rule="evenodd" d="M35.2854 16.6761C32.8296 14.2174 29.5635 12.8628 26.0841 12.8613C18.9144 12.8613 13.0793 18.6963 13.0764 25.8679C13.0754 28.1605 13.6743 30.3984 14.8127 32.371L12.9673 39.1113L19.8629 37.3025C21.7629 38.3389 23.902 38.8851 26.0788 38.8857H26.0843C33.2532 38.8857 39.0889 33.0503 39.0917 25.8783C39.0931 22.4026 37.7414 19.1346 35.2854 16.6761ZM26.0841 36.689H26.0796C24.1397 36.6882 22.2371 36.1669 20.577 35.182L20.1823 34.9476L16.0904 36.0211L17.1826 32.0315L16.9255 31.6225C15.8432 29.9011 15.2717 27.9115 15.2727 25.8687C15.2749 19.9078 20.125 15.0582 26.0884 15.0582C28.9762 15.0592 31.6908 16.1852 33.7319 18.2288C35.7731 20.2723 36.8965 22.9887 36.8956 25.8775C36.893 31.8389 32.0432 36.689 26.0841 36.689V36.689ZM32.0144 28.5918C31.6895 28.429 30.0915 27.643 29.7935 27.5343C29.4958 27.4259 29.2788 27.3719 29.0624 27.6971C28.8456 28.0224 28.2229 28.7546 28.0332 28.9713C27.8435 29.1883 27.6541 29.2155 27.329 29.0527C27.0039 28.8901 25.9567 28.5468 24.7152 27.4395C23.7491 26.5777 23.0969 25.5134 22.9072 25.1881C22.7178 24.8626 22.9056 24.7036 23.0498 24.5248C23.4016 24.0879 23.7539 23.6299 23.8622 23.4131C23.9707 23.1961 23.9164 23.0063 23.835 22.8437C23.7539 22.681 23.1039 21.0813 22.8331 20.4303C22.5691 19.7968 22.3014 19.8824 22.1018 19.8724C21.9124 19.863 21.6956 19.8611 21.4788 19.8611C21.2622 19.8611 20.9101 19.9423 20.6121 20.2679C20.3142 20.5933 19.4747 21.3794 19.4747 22.9792C19.4747 24.579 20.6393 26.1244 20.8017 26.3414C20.9642 26.5583 23.0937 29.8412 26.3539 31.2488C27.1294 31.584 27.7347 31.7838 28.2068 31.9336C28.9855 32.181 29.6938 32.146 30.2539 32.0624C30.8785 31.969 32.1767 31.2761 32.4478 30.517C32.7185 29.7577 32.7185 29.107 32.6372 28.9713C32.5561 28.8358 32.3393 28.7546 32.0144 28.5918V28.5918Z" fill="white"/>
</svg>
