<svg width="83" height="74" viewBox="0 0 83 74" fill="none" xmlns="http://www.w3.org/2000/svg">
<path fill-rule="evenodd" clip-rule="evenodd" d="M53.9686 45.4127H29.4634V54.6465C29.4634 58.4238 32.1912 60.7874 36.2174 60.7874C39.5794 60.7874 40.467 60.9193 41.7179 62.1625C42.5801 61.301 43.293 60.9797 44.7574 60.86L44.7922 60.7168L45.5644 58.3247C45.5214 58.2704 44.258 56.834 44.258 56.834C43.7577 57.0007 43.3369 57.0283 42.6312 57.0283C41.9049 57.0283 41.0879 56.9436 40.1983 56.7766C40.1094 56.7562 40.0258 56.7471 39.943 56.7471C39.8336 56.7471 39.8267 56.7562 39.798 56.8095L39.6448 57.0631L39.364 57.5286L38.835 57.4058L36.4827 56.8514L36.16 57.3845L36.208 57.4417L36.494 57.7579L36.3673 58.1691C36.1939 58.7073 35.6332 59.3356 35.4615 59.5094L34.8742 60.1408L34.338 59.4625L33.9358 58.957C33.5128 58.4823 33.4148 57.7579 33.6528 56.9966C33.6476 57.0007 33.6395 57.0048 33.6293 57.0059L32.9664 57.2811L32.6682 56.6315L32.4589 56.1709C32.0984 55.3607 32.2312 54.1769 33.2033 53.4607L35.0959 52.3895L36.8974 52.7446C36.9404 52.5716 37.0048 51.9515 37.0567 51.794C37.0211 51.7901 36.9893 51.7818 36.9537 51.7818L35.9159 52.1706L34.914 51.478C34.914 51.478 34.523 51.1004 34.8783 50.7229L35.8466 49.2516L33.3902 46.1628L37.165 47.7158L37.4173 47.4048L37.9258 46.793L38.5051 47.3444C38.6685 47.502 38.7624 47.6963 38.8082 47.8908C39.848 48.297 41.713 49.4941 41.8775 51.441L41.2941 51.6744V51.6886C41.428 51.8472 41.5382 51.9126 41.573 51.9189L44.2673 52.1839C44.3366 52.1726 44.4205 52.1419 44.5164 52.1143C44.8524 51.9998 45.354 51.834 45.9504 51.834C46.4366 51.834 46.9054 51.9454 47.3568 52.1574C47.5233 52.0939 47.7273 52.0478 47.9645 52.0324L48.0942 52.0293C49.5362 52.0293 50.2541 53.1089 50.8292 53.9712C50.9252 54.1206 51.0211 54.2607 51.1213 54.4001C51.6238 55.1121 52.2825 56.1535 52.309 56.1985L52.6063 56.6632L52.2427 57.0877C51.9628 57.4121 51.541 57.7938 50.819 57.7938C50.6699 57.7938 50.5064 57.7773 50.3308 57.7436C50.1776 57.7149 50.0365 57.6688 49.9018 57.6117C49.8825 57.7549 49.8518 57.9246 49.8253 58.0709L49.3535 60.5407C52.1793 59.845 53.9738 57.7077 53.9738 54.6465L53.9686 45.4127Z" fill="#FFE52B"/>
<path fill-rule="evenodd" clip-rule="evenodd" d="M29.4643 44.6689H48.524C47.5722 43.6835 47.5864 42.4364 47.8285 41.626C47.5507 41.4929 47.3219 41.3334 47.1187 41.1574C46.3732 41.7079 44.0996 43.3664 43.5052 43.7817L43.3776 43.8678L35.8975 42.5131H35.7465C35.5667 42.5131 35.3042 42.506 35.0162 42.4712C34.9354 42.8109 34.6444 43.041 34.3114 43.041C34.2727 43.041 34.2308 43.038 34.1919 43.0297C33.9969 42.996 33.8263 42.8967 33.7131 42.7331C33.5966 42.5714 33.5505 42.3801 33.5822 42.1826L33.6098 42.0211C32.8398 41.4766 32.1269 40.2602 32.4425 38.9781L32.4732 38.8432L32.5825 38.7643C32.5977 38.7532 32.7264 38.6641 32.9204 38.5545L32.3771 38.4706C32.1739 38.435 32.037 38.2446 32.0687 38.044C32.1035 37.8404 32.2943 37.6952 32.4945 37.7341L33.7896 37.9386L33.908 33.3715L35.8343 31.3292L37.0372 33.8655L35.7678 38.2601L36.9127 38.44C37.114 38.4717 37.2518 38.661 37.2211 38.8688C37.1916 39.0529 37.0342 39.1768 36.8545 39.1768C36.8351 39.1768 36.8147 39.1768 36.7953 39.1746L35.8649 39.0242C35.8771 39.0529 35.8956 39.0692 35.9067 39.0979C36.0058 39.3035 36.2255 39.4489 36.3542 39.5132L42.056 39.6043C42.2981 39.3691 42.8956 38.7817 43.5124 38.1607C42.1082 37.6267 41.5985 36.4162 41.5137 35.6111C40.7294 35.2764 40.188 34.7753 39.8878 34.1235C39.5223 33.3163 39.6518 32.5069 39.7498 32.114C38.9892 31.8366 38.1904 31.3292 37.3732 30.517H28.7832C29.1518 31.5082 29.4643 32.5815 29.4643 33.6486V44.6689Z" fill="#FFE52B"/>
<path fill-rule="evenodd" clip-rule="evenodd" d="M37.311 49.4194C37.1712 49.4062 37.0558 49.5151 37.0445 49.6524C37.0354 49.7952 37.1395 49.9163 37.2814 49.9193C37.4172 49.9306 37.5368 49.8259 37.55 49.6855C37.5542 49.5509 37.454 49.4246 37.311 49.4194Z" fill="#1A1919"/>
<path fill-rule="evenodd" clip-rule="evenodd" d="M48.6697 68.7819L47.5502 65.6973C48.882 65.2911 51.1719 64.4174 52.1981 63.8362L51.514 66.0809L53.8323 66.8535C52.43 67.5583 50.7296 68.2162 48.6697 68.7819ZM41.7196 71.5547C39.0212 71.5547 35.943 70.9327 35.0352 70.6093L36.4138 66.8739C37.5568 67.2084 39.9353 67.5636 41.6614 67.5523H41.7707C43.4966 67.5636 45.8723 67.2084 47.0212 66.8739L48.3969 70.6093C47.49 70.9327 44.4107 71.5547 41.7196 71.5547ZM29.5996 66.8535L31.9221 66.0809L31.2349 63.8362C32.2592 64.4174 34.5532 65.2911 35.8817 65.6973L34.7614 68.7819C32.7086 68.2162 31.001 67.5583 29.5996 66.8535ZM53.9364 66.168L52.525 65.6256L52.9151 64.1635L53.3442 62.5715C53.3442 62.5715 50.843 63.9314 47.3174 64.9514C46.3176 65.2378 45.5607 65.37 45.5607 65.37V66.4545C45.5607 66.4545 43.6755 66.7818 41.7707 66.7818H41.6614C39.7547 66.7818 37.8723 66.4545 37.8723 66.4545V65.37C37.8723 65.37 37.1134 65.2378 36.1147 64.9514C32.5902 63.9314 30.091 62.5715 30.091 62.5715L30.5137 64.1635L30.9121 65.6256L29.4955 66.168L27.9248 66.7553C29.7244 67.627 32.2194 68.8934 34.5021 69.5198L33.9637 70.994C33.9637 70.994 36.8591 72.315 41.6829 72.3272V72.3302H41.7481V72.3272C46.5769 72.315 49.4703 70.994 49.4703 70.994L48.9289 69.5198C51.2127 68.8934 53.7119 67.627 55.5032 66.7553L53.9364 66.168Z" fill="#1A1919"/>
<path fill-rule="evenodd" clip-rule="evenodd" d="M35.8219 6.71237L36.4633 6.7799L36.741 6.19366L37.5489 4.4615L39.0503 5.23907L39.6314 5.5368L41.7139 3.46803L43.3368 5.07741L43.8015 5.5368L44.3835 5.23907L45.8757 4.4615L46.6958 6.19366L46.9674 6.7799L47.6088 6.71237L48.2228 6.63872C47.9417 7.27204 47.7344 7.87467 47.5864 8.37292C45.9666 7.46847 43.8617 6.95384 41.7139 6.95384C39.5762 6.95384 37.4735 7.46847 35.8474 8.37292C35.6974 7.87467 35.492 7.27204 35.2112 6.63872L35.8219 6.71237ZM41.7139 7.85727C44.5878 7.85727 46.8868 8.81186 48.1573 9.82782C48.1573 9.82782 48.5342 7.55238 49.8221 5.54499L47.5077 5.80897L46.2965 3.23169L43.971 4.43285L41.7139 2.19934L39.4638 4.43285L37.1333 3.23169L35.9241 5.80897L33.6099 5.54499C34.8987 7.55238 35.2745 9.82782 35.2745 9.82782C36.5533 8.81186 38.8451 7.85727 41.7139 7.85727Z" fill="#1A1919"/>
<path fill-rule="evenodd" clip-rule="evenodd" d="M78.1347 46.1321C78.1347 46.1321 77.1349 47.8766 74.839 47.8766H74.8103C72.0549 47.8601 70.9436 46.1762 70.9436 46.1762C70.9436 46.1762 71.1029 48.3667 70.1112 51.3236C68.9154 54.8871 70.1215 57.4325 70.1215 57.4325C70.1215 57.4325 69.477 57.6075 68.7366 57.6075C68.4538 57.6075 68.1576 57.579 67.8787 57.5062C65.5767 56.9589 65.0027 54.8595 65.0027 54.8595C65.0027 54.8595 65.2142 61.9488 56.963 61.9488H56.8986C56.8986 61.9488 57.6259 60.9584 57.8404 58.1078C58.2324 52.8469 61.7876 52.1247 61.7876 52.1247C61.7876 52.1247 59.8901 51.8863 59.0679 51.1486C57.7821 49.9802 57.873 48.6317 57.873 48.6317C60.7755 48.5908 62.6783 47.6004 64.1275 45.9215C65.6971 44.1021 65.9555 42.1428 65.9555 42.1428C65.9555 42.1428 64.394 43.561 61.376 43.561C61.1104 43.561 60.8266 43.5477 60.5356 43.5201C59.1068 43.4034 58.1201 42.4949 58.1201 42.4949C61.2628 40.4752 63.4666 36.9537 61.5118 31.6506C59.9453 27.3995 56.1827 24.2249 52.3937 21.8326C51.1333 21.0449 50.4307 20.1671 50.4307 19.413C50.4307 17.6369 52.9522 17.5796 53.9848 16.3876C55.1788 15.0002 54.4301 12.7514 53.3965 11.3968C53.3965 11.3968 53.7449 11.3262 54.2943 11.3262C55.384 11.3262 57.2714 11.6004 58.8227 13.2118C60.8818 15.3461 60.0279 17.6716 60.0279 17.6716L60.5795 17.7791C60.9094 17.8486 61.2382 17.8619 61.5792 17.8793C61.6529 17.8793 61.7283 17.8834 61.8009 17.8834C64.7934 17.8834 66.1314 14.7496 66.1314 14.7496C66.1314 14.7496 69.3117 18.6692 64.6278 21.7416C63.8221 22.2664 63.4666 22.7546 63.5596 23.2734L63.6331 23.6139L63.966 23.6733C67.3608 24.5952 69.0787 26.9422 71.1766 29.6085C74.363 33.6651 78.8691 33.7962 79.4246 33.7962H79.485C79.485 33.7962 78.4574 37.0487 75.4262 37.0487C75.3752 37.0487 75.3323 37.0487 75.2821 37.0456C73.8901 36.9956 73.1753 36.4614 73.1753 36.4614C73.1753 36.4614 72.633 43.8444 78.1347 46.1321ZM75.4262 38.0443C79.1418 38.0443 80.3856 34.2576 80.4367 34.095L80.8525 32.7597L79.4594 32.8038H79.4544C78.963 32.8038 74.8624 32.6943 71.9558 28.9937L71.6811 28.6499C69.7815 26.2311 67.9809 23.9291 64.7597 22.8793C64.8525 22.7944 64.9864 22.6922 65.1692 22.5725C66.8788 21.447 67.8727 20.0791 68.1217 18.4912C68.4875 16.1032 66.9657 14.1981 66.8992 14.1204L65.8647 12.8384L65.2183 14.3587C65.1742 14.4539 64.0886 16.8879 61.8009 16.8879H61.6303C61.474 16.8797 61.3241 16.8736 61.178 16.8613C61.2576 15.7758 61.0604 14.0958 59.5386 12.5181C57.7095 10.6212 55.4668 10.3368 54.2943 10.3368C53.6673 10.3368 53.2504 10.4146 53.2046 10.4186L51.643 10.7297L52.606 12.0025C53.3628 12.9836 54.048 14.7946 53.2352 15.74C52.9748 16.0418 52.4406 16.2853 51.929 16.5308C50.8771 17.0148 49.439 17.6931 49.439 19.413C49.439 20.5262 50.302 21.6915 51.8655 22.682C56.4922 25.5969 59.3467 28.6386 60.5795 31.9964C62.4873 37.1612 59.9983 40.1068 57.5819 41.6599L56.4972 42.3578L57.447 43.2315C57.5748 43.3441 58.7338 44.3681 60.4497 44.5155C60.7744 44.537 61.085 44.5544 61.376 44.5544C62.474 44.5544 63.4105 44.3816 64.1714 44.1493C63.963 44.5155 63.7037 44.8911 63.3809 45.2675C62 46.8708 60.3006 47.6004 57.8567 47.6402L56.9486 47.6545L56.8793 48.5671C56.87 48.7514 56.8026 50.4436 58.4 51.8822C58.6452 52.1051 58.9403 52.2884 59.2507 52.4377C58.1662 53.4159 57.0651 55.1194 56.8517 58.0363C56.6709 60.4713 56.0919 61.3726 56.0847 61.382L55.0817 62.9166L56.8956 62.9412C59.892 62.9412 62.1869 62.1135 63.7772 60.4713C64.7167 59.5005 65.255 58.4036 65.5715 57.4325C66.0935 57.8776 66.7666 58.2686 67.6449 58.4762C67.9779 58.554 68.3415 58.597 68.7366 58.597C69.5833 58.597 70.2921 58.4168 70.3707 58.3975L71.5289 58.0895L71.0173 57.007C70.9795 56.92 70.0132 54.7458 71.053 51.6468C71.5002 50.3056 71.7291 49.1054 71.8404 48.1702C72.5695 48.5508 73.5469 48.8649 74.8094 48.869C77.6761 48.869 78.9406 46.7234 78.9966 46.6335L79.5615 45.6483L78.5146 45.2164C75.0985 43.7952 74.3415 39.979 74.1904 37.9132C74.4988 37.9736 74.8522 38.028 75.2506 38.0391L75.4262 38.0443Z" fill="#1A1919"/>
<path fill-rule="evenodd" clip-rule="evenodd" d="M71.2498 21.8421C71.9423 21.8421 72.7492 22.0784 73.5121 22.8682C75.9069 25.3035 78.1344 25.4395 78.1344 25.4395C77.7302 26.3378 76.5565 27.1256 75.3412 27.1256C75.0604 27.1256 74.7774 27.0826 74.4986 26.9854C72.8503 26.4288 72.2609 23.9538 69.3677 22.4109C69.3677 22.4109 70.1744 21.8421 71.2498 21.8421ZM68.8958 23.2909C70.2816 24.0305 71.0894 25.022 71.7973 25.9009C72.4939 26.7592 73.1526 27.584 74.1871 27.9276C74.5538 28.0534 74.9439 28.1139 75.3412 28.1139C76.8906 28.1139 78.4491 27.1634 79.0394 25.8466L79.6338 24.5278L78.1957 24.4419C78.1283 24.4409 76.2788 24.2711 74.223 22.1664C73.3762 21.3019 72.3519 20.8486 71.2498 20.8486C69.9028 20.8486 68.9039 21.5229 68.7937 21.5924L67.4731 22.5246L68.8958 23.2909Z" fill="#1A1919"/>
<path fill-rule="evenodd" clip-rule="evenodd" d="M69.5466 36.44V36.4911C68.7131 29.7487 63.8261 24.8796 58.3877 21.9206C57.8852 21.6506 57.4194 21.4214 56.9702 21.2024C58.6246 21.4603 61.2913 21.4909 63.3503 19.7025C63.3503 19.7025 60.2005 22.023 53.751 19.9153C55.5351 21.0756 59.0047 22.7137 62.1737 25.3665C70.0908 32.3371 64.4268 39.1359 64.4268 39.1359C67.272 36.1605 67.3906 32.9735 66.553 30.3707C68.0513 32.8703 69.0094 35.9017 68.8603 39.6423C68.6427 44.9994 65.7024 49.6333 62.6099 53.3554C61.1237 55.1621 60.7918 57.3825 60.7918 57.3825C60.7918 57.3825 61.3915 55.4232 63.1113 53.4076C66.4265 49.5196 69.2606 45.4824 69.6323 39.6627C69.9746 40.7196 71.387 43.6541 73.6267 44.7602C73.6267 44.7602 70.812 43.0606 69.5466 36.44Z" fill="#1A1919"/>
<path fill-rule="evenodd" clip-rule="evenodd" d="M26.4689 61.9488C18.2167 61.9488 18.4271 54.8595 18.4271 54.8595C18.4271 54.8595 17.8511 56.9589 15.5521 57.5062C15.2764 57.579 14.9822 57.6075 14.6953 57.6075C13.9548 57.6075 13.3134 57.4325 13.3134 57.4325C13.3134 57.4325 14.5135 54.8871 13.3175 51.3236C12.3289 48.3676 12.4892 46.1762 12.4892 46.1762C12.4892 46.1762 11.3801 47.8601 8.62154 47.8766H8.59396C6.30009 47.8766 5.29819 46.1321 5.29819 46.1321C10.7959 43.8444 10.2577 36.4614 10.2577 36.4614C10.2577 36.4614 9.54274 36.9956 8.14865 37.0456C8.0976 37.0487 8.05266 37.0487 8.00467 37.0487C4.97138 37.0487 3.94394 33.7962 3.94394 33.7962H4.0052C4.56591 33.7962 9.06682 33.6643 12.2513 29.6085C14.3501 26.9412 16.07 24.5963 19.4597 23.6733L19.7998 23.6131L19.8723 23.2734C19.9662 22.7546 19.6118 22.2664 18.806 21.7416C14.1233 18.6692 17.3037 14.7506 17.3037 14.7506C17.3037 14.7506 18.6334 17.8834 21.634 17.8834C21.7066 17.8834 21.775 17.8804 21.8526 17.8804C22.1897 17.8619 22.5227 17.8486 22.8515 17.7791L23.4029 17.6716C23.4029 17.6716 22.5461 15.3461 24.6111 13.2118C26.1626 11.6004 28.0478 11.3262 29.1375 11.3262C29.6902 11.3262 30.0332 11.3968 30.0332 11.3968C29.0017 12.7514 28.2541 15.0002 29.447 16.3876C30.4796 17.5796 32.9981 17.6369 32.9981 19.413C32.9981 20.1671 32.2965 21.0449 31.0382 21.8326C27.2461 24.2249 23.4846 27.3995 21.919 31.6506C19.9662 36.9545 22.1701 40.4752 25.317 42.4949C25.317 42.4949 24.3272 43.4034 22.8965 43.5201C22.6052 43.5477 22.3234 43.561 22.0528 43.561C19.0379 43.561 17.4773 42.1428 17.4773 42.1428C17.4773 42.1428 17.7367 44.1021 19.2973 45.9223C20.7557 47.6004 22.6555 48.5908 25.5589 48.6317C25.5589 48.6317 25.6508 49.9802 24.367 51.1476C23.5428 51.8863 21.6442 52.1247 21.6442 52.1247C21.6442 52.1247 25.2024 52.8469 25.5936 58.1069C25.8062 60.9584 26.5282 61.9488 26.5282 61.9488H26.4689ZM27.3462 61.382C27.3432 61.3726 26.767 60.4713 26.5823 58.0363C26.3667 55.1183 25.2659 53.4159 24.1781 52.4377C24.4926 52.2884 24.7838 52.1051 25.0288 51.8822C26.6262 50.4436 26.5588 48.7514 26.5475 48.5671L26.4862 47.6545L25.5712 47.6402C23.1342 47.6004 21.4318 46.8708 20.051 45.2675C19.7303 44.8911 19.4709 44.5155 19.2605 44.1493C20.0204 44.3816 20.9508 44.5544 22.0528 44.5544C22.3479 44.5544 22.6555 44.537 22.9802 44.5155C24.696 44.3681 25.857 43.3451 25.9859 43.2315L26.9357 42.3578L25.852 41.6599C23.4263 40.1068 20.9477 37.1612 22.8515 31.9964C24.0851 28.6386 26.9357 25.5969 31.5693 22.682C33.1331 21.6915 33.9887 20.5262 33.9887 19.413C33.9887 17.6931 32.555 17.0148 31.503 16.5308C30.9903 16.2853 30.4561 16.0418 30.1966 15.74C29.3816 14.7946 30.068 12.9836 30.8247 12.0025L31.7951 10.7297L30.2242 10.4186C30.1784 10.4135 29.7667 10.3368 29.1375 10.3368C27.9652 10.3368 25.7264 10.6212 23.8982 12.5181C22.3744 14.0968 22.1743 15.7758 22.2529 16.8613C22.1059 16.8736 21.9578 16.8797 21.8015 16.8879H21.634C19.3402 16.8879 18.2566 14.4539 18.2147 14.3587L17.5703 12.8384L16.5254 14.1204C16.4672 14.1981 14.9414 16.1032 15.3132 18.4912C15.5593 20.0791 16.5551 21.447 18.2637 22.5725C18.4496 22.6922 18.5793 22.7944 18.6722 22.8793C15.4469 23.9291 13.6484 26.2311 11.7488 28.6499L11.4751 28.9937C8.57251 32.6943 4.46276 32.8038 3.97152 32.8038L2.57129 32.7597L2.99717 34.095C3.04722 34.2576 4.28607 38.0443 8.00467 38.0443L8.18339 38.0391C8.57761 38.028 8.92996 37.9736 9.24351 37.9132C9.09031 39.9779 8.33148 43.7952 4.91417 45.2164L3.87039 45.6483L4.43518 46.6335C4.4893 46.7234 5.75777 48.869 8.62971 48.869C9.8849 48.8649 10.8613 48.5508 11.5915 48.1713C11.7018 49.1055 11.9316 50.3056 12.38 51.6468C13.4197 54.7458 12.4514 56.92 12.4147 57.007L11.901 58.0895L13.0612 58.3975C13.1378 58.4168 13.8517 58.597 14.6953 58.597C15.0895 58.597 15.4541 58.554 15.784 58.4762C16.6633 58.2686 17.3435 57.8776 17.8603 57.4325C18.1749 58.4036 18.7151 59.5005 19.6527 60.4713C21.247 62.1135 23.5398 62.9412 26.5354 62.9412L28.3501 62.9166L27.3462 61.382Z" fill="#1A1919"/>
<path fill-rule="evenodd" clip-rule="evenodd" d="M9.9168 22.8674C10.6828 22.0784 11.4886 21.8411 12.1851 21.8411C13.2544 21.8411 14.0643 22.411 14.0643 22.411C11.174 23.9538 10.5776 26.4289 8.92713 26.9866C8.65446 27.0837 8.37155 27.1246 8.08966 27.1246C6.87533 27.1246 5.6998 26.3378 5.29842 25.4396C5.29842 25.4396 7.52489 25.3035 9.9168 22.8674ZM8.08966 28.1139C8.48798 28.1139 8.8771 28.0546 9.24477 27.9287C10.2814 27.584 10.9401 26.7603 11.6357 25.901C12.3475 25.0231 13.1462 24.0306 14.5331 23.291L15.9599 22.5246L14.6352 21.5915C14.5249 21.5219 13.5312 20.8497 12.1851 20.8497C11.08 20.8497 10.0547 21.302 9.20901 22.1664C7.15007 24.272 5.30557 24.4409 5.23919 24.4431L3.80322 24.5278L4.39251 25.8477C4.98591 27.1635 6.54135 28.1139 8.08966 28.1139Z" fill="#1A1919"/>
<path fill-rule="evenodd" clip-rule="evenodd" d="M14.5741 39.6423C14.4199 35.9017 15.3789 32.8703 16.8792 30.3707C16.0428 32.9735 16.1561 36.1605 19.0056 39.137C19.0056 39.137 13.3394 32.3371 21.2617 25.3665C24.4288 22.7137 27.8951 21.0756 29.6792 19.9153C23.2317 22.023 20.0831 19.7025 20.0831 19.7025C22.14 21.4909 24.8076 21.4603 26.4611 21.2024C26.0138 21.4214 25.5439 21.6495 25.0445 21.9206C19.6041 24.8796 14.7202 29.7487 13.8827 36.4911V36.44C12.6193 43.0606 9.80664 44.7602 9.80664 44.7602C12.0443 43.6541 13.4537 40.7196 13.7969 39.6627C14.1707 45.4824 17.0048 49.5196 20.319 53.4076C22.0389 55.4232 22.6444 57.3825 22.6444 57.3825C22.6444 57.3825 22.3084 55.1621 20.8153 53.3554C17.7279 49.6342 14.7906 44.9994 14.5741 39.6423Z" fill="#1A1919"/>
<path fill-rule="evenodd" clip-rule="evenodd" d="M39.8511 26.0009V27.3381C40.3127 26.7763 41.2003 26.8909 41.2003 26.8909V28.8184C41.2003 28.8184 41.1707 29.7669 40.8337 30.1772H42.7588C42.4259 29.7669 42.3933 28.8184 42.3933 28.8184V26.8909C42.3933 26.8909 43.2837 26.7763 43.7412 27.3381V26.0009H39.8511Z" fill="#1A1919"/>
<path fill-rule="evenodd" clip-rule="evenodd" d="M39.025 18.0717C39.6409 18.5608 39.9963 18.6426 40.0076 18.6498L40.2486 18.7613V17.5028L37.9863 16.5503C37.9863 16.5503 38.0057 17.2798 39.025 18.0717Z" fill="#1A1919"/>
<path fill-rule="evenodd" clip-rule="evenodd" d="M44.4035 18.0717C45.4258 17.2798 45.4454 16.5503 45.4454 16.5503L43.1831 17.5028V18.7613L43.422 18.6498C43.4343 18.6426 43.7886 18.5608 44.4035 18.0717Z" fill="#1A1919"/>
<path fill-rule="evenodd" clip-rule="evenodd" d="M41.7142 14.7186L36.2655 12.5618C36.7291 11.463 38.8658 10.5278 41.7142 10.5248C44.5667 10.5278 46.7034 11.463 47.165 12.5618L41.7142 14.7186ZM45.7769 21.4744L42.1145 23.408V15.5791L47.0842 13.8888L45.7769 21.4744ZM48.0452 23.5523L49.7203 24.5264H49.7437L50.1645 24.7728C49.2189 25.0349 48.4966 25.5085 47.8901 26.1305C47.8677 26.1501 47.8481 26.1725 47.8238 26.1962C47.6849 26.3444 47.5469 26.5042 47.4141 26.6698C47.3906 26.7004 47.3641 26.7332 47.3365 26.7702C47.2078 26.9369 47.0842 27.1088 46.9679 27.2857C46.9483 27.3163 46.9259 27.3472 46.9055 27.3768C46.7677 27.5845 46.6338 27.8056 46.5021 28.0346C45.3092 30.0933 43.4066 31.323 41.7142 31.326C40.024 31.323 38.1203 30.0933 36.9293 28.0346C36.7998 27.8117 36.6689 27.5958 36.5311 27.3861C36.5035 27.3472 36.479 27.3061 36.4535 27.2724C36.337 27.1016 36.2186 26.9338 36.1001 26.7763C36.0695 26.7332 36.0419 26.7004 36.0113 26.6637C35.8815 26.5042 35.7487 26.3466 35.614 26.2012C35.5853 26.1777 35.5659 26.1501 35.5414 26.1266C34.9317 25.5035 34.2117 25.0349 33.265 24.7728L33.6897 24.5264H33.7092L35.3873 23.5523L37.1082 22.5649L41.7059 25.0728L41.7142 25.0626L41.7274 25.0728L46.3244 22.5649L48.0452 23.5523ZM54.6521 30.5169C54.2774 31.5081 53.9668 32.5816 53.9668 33.6487L53.9699 40.5383C52.533 40.2968 52.3633 38.7468 52.3572 38.6794L52.3307 38.3643L52.0212 38.3367C51.3972 38.2762 50.9825 38.0122 50.6333 37.6727C49.9287 36.9666 49.9276 35.8227 49.9287 35.8125C49.9185 35.8707 49.1534 36.945 50.0419 38.1187C50.4157 38.6129 50.958 38.9178 51.6587 39.0373C51.8232 39.8969 52.4624 41.1114 53.9699 41.2966V44.6688H49.7294C47.7746 43.5782 48.6029 41.6608 48.6407 41.5778L48.8061 41.2146L48.4323 41.0725C46.3141 40.2857 46.8983 38.1697 46.9259 38.0787L47.0118 37.7698L46.7227 37.6338C44.9753 36.8214 45.2112 34.635 45.2346 34.5428C44.6965 34.9807 44.5035 35.8707 44.8732 36.7447C44.673 36.9748 44.4044 37.2511 44.1092 37.5571C42.2984 37.0946 42.2423 35.4278 42.2423 35.3511L42.2382 35.0942L42.0002 35.0023C41.2934 34.7404 40.8083 34.3463 40.5684 33.8184C40.3006 33.2331 40.3947 32.6205 40.4682 32.3247C40.6755 32.3727 40.8818 32.4044 41.0789 32.4218C41.2832 32.4422 41.4916 32.4557 41.702 32.4557H41.7305C41.94 32.4557 42.1471 32.4422 42.3514 32.4218C43.4801 32.3092 44.7424 31.8244 46.0588 30.5169H54.6521ZM49.3536 60.5416L49.8274 58.0698C49.852 57.9244 49.8826 57.7547 49.903 57.6123C50.0378 57.6686 50.1777 57.7138 50.331 57.7423C50.5087 57.7762 50.6711 57.7936 50.8191 57.7936C51.5422 57.7936 51.964 57.4128 52.244 57.0874L52.6065 56.6641L52.3103 56.1985C52.2837 56.1525 51.6261 55.1118 51.1214 54.3998C51.0214 54.2597 50.9273 54.1206 50.8315 53.97C50.2564 53.1086 49.5375 52.0291 48.0943 52.0291L47.9657 52.0322C47.7288 52.0476 47.5245 52.0948 47.3589 52.1571C46.9055 51.9452 46.4378 51.8348 45.9516 51.8348C45.3542 51.8348 44.8536 51.9996 44.5187 52.113C44.4226 52.1406 44.337 52.1715 44.2694 52.1847L41.5734 51.9187C41.5395 51.9116 41.4303 51.847 41.2954 51.6886V51.6751L41.8787 51.4408C41.7142 49.4939 39.8483 48.2968 38.8086 47.8906C38.7636 47.6963 38.6697 47.5018 38.5063 47.3433L37.9271 46.7928L37.4176 47.4046L37.1673 47.7156L33.3915 46.1625L35.8478 49.2513L34.8785 50.7227C34.5242 51.0991 34.9154 51.4788 34.9154 51.4788L35.9171 52.1693L36.9549 51.7816C36.9906 51.7816 37.0223 51.7898 37.058 51.7938C37.0069 51.9513 36.9417 52.5714 36.8986 52.7444L35.0971 52.3903L33.2046 53.4605C32.2313 54.1766 32.0985 55.3605 32.4602 56.1718L32.6695 56.6313L32.9677 57.2809L33.6305 57.0068C33.6397 57.0036 33.649 57.0005 33.6551 56.9955C33.4171 57.7577 33.514 58.4821 33.9379 58.9568L34.3404 59.4632L34.8754 60.1406L35.4627 59.5084C35.6344 59.3365 36.196 58.7073 36.3677 58.1689L36.4953 57.7577L36.2092 57.4415L36.1614 57.3843L36.484 56.8512L38.8351 57.4067L39.3652 57.5284L39.646 57.0629L39.7992 56.8103C39.8288 56.756 39.8351 56.748 39.9442 56.748C40.0281 56.748 40.1107 56.756 40.2007 56.7764C41.088 56.9442 41.9061 57.0272 42.6324 57.0272C43.337 57.0272 43.7589 57.0005 44.2603 56.8338C44.2603 56.8338 45.5226 58.2702 45.5665 58.3256L44.7923 60.7157L44.7586 60.8598C43.2942 60.9784 42.5814 61.3008 41.7194 62.1623C40.4682 60.9191 39.5817 60.7883 36.2186 60.7883C32.1924 60.7883 29.4635 58.4238 29.4635 54.6463V45.4125H53.9699L53.9751 54.6463C53.9751 57.7075 52.1805 59.8448 49.3536 60.5416ZM34.2597 55.3205L34.3873 55.6398C34.3025 55.919 33.3467 56.3142 33.3467 56.3142L33.1402 55.8608C32.9207 55.3779 32.9677 54.5635 33.6336 54.0651L35.1839 53.1197L36.8282 53.4688C36.7976 53.9915 37.109 54.3825 37.109 54.3825L35.3873 54.0508L34.3567 54.7641C34.1811 54.8867 34.1687 55.1118 34.2597 55.3205ZM49.0941 57.9307L48.5662 60.692C48.2271 60.7402 47.8716 60.7648 47.5041 60.7789L48.0615 58.125C48.2271 57.3361 46.1129 57.0907 45.0681 55.5396C44.5585 56.1136 43.5985 56.2855 42.6324 56.2855C41.752 56.2855 40.8727 56.1453 40.3376 56.0388C40.2017 56.0173 40.072 56.0021 39.9442 56.0021C39.6358 56.0021 39.3539 56.0981 39.159 56.4246L39.0057 56.6845L36.1245 56.0051L35.4077 57.1939C35.3075 57.3874 35.2993 57.5491 35.4627 57.729L35.6568 57.9418C35.5231 58.3623 34.9235 58.9987 34.9235 58.9987L34.4955 58.4625C34.1565 58.0831 34.2117 57.3874 34.5651 56.7438L35.7079 54.8111L38.1488 55.164L37.7699 54.2986C37.2603 53.1525 38.0375 51.6966 38.1203 50.8577C38.0916 51.1115 37.8588 51.1687 37.5891 51.1687C37.3431 51.1687 37.0682 51.1217 36.8854 51.1217C36.813 51.1217 36.7517 51.1289 36.7189 51.1535L36.0571 51.5555L35.5364 51.0931C35.4729 51.005 35.4536 50.7964 35.6057 50.6408L36.813 49.2842L35.3873 47.6144L37.3837 48.6202L37.9947 47.8793C38.162 48.044 38.0886 48.4737 38.0886 48.4737C38.7115 48.4891 40.4599 49.4569 40.553 51.7181C40.5582 51.7877 40.5582 51.8644 40.5582 51.9392C40.5582 51.9392 40.5745 51.9678 40.6051 52.0139C40.7277 52.1847 41.0698 52.6205 41.5019 52.6605L44.2625 52.9346H44.2736C44.5759 52.9346 45.1785 52.5786 45.9516 52.5786C46.3735 52.5786 46.8412 52.6859 47.3406 53.0011C47.3406 53.0011 47.5929 52.8015 47.9994 52.7811C48.03 52.777 48.0657 52.777 48.0943 52.777C49.3321 52.777 49.847 53.8984 50.5118 54.8295C51.0112 55.5396 51.6791 56.5913 51.6791 56.5913C51.4331 56.884 51.2042 57.0477 50.8191 57.0477C50.7139 57.0477 50.5944 57.0394 50.4638 57.0129C49.135 56.7673 48.9441 54.0326 48.1863 53.8165C48.1454 53.8054 48.1046 53.8013 48.0657 53.8013C47.8216 53.8013 47.7153 54.0182 47.7153 54.0182C48.0617 54.9512 47.8583 55.3277 48.2321 56.046C48.5099 56.5791 49.0054 57.017 49.2086 57.2246C49.2086 57.2246 49.1534 57.6288 49.0941 57.9307ZM46.5532 60.7974C46.1813 60.7974 45.8393 60.8026 45.5319 60.8148L46.3407 58.2917C46.4663 57.9418 45.828 57.4928 45.5635 57.0987C45.9618 57.3496 46.9944 57.899 47.4908 58.1178C47.4406 58.1998 46.5532 60.7974 46.5532 60.7974ZM34.5292 38.0613L34.6446 33.6752L35.6272 32.6337L36.244 33.928L35.0276 38.138L34.5292 38.0613ZM35.236 39.4201C35.3964 39.7578 35.6855 39.9828 35.8887 40.1108C35.8815 40.4279 35.8519 40.918 35.7691 41.3518C35.7487 41.4489 35.7241 41.538 35.6976 41.6269C35.6833 41.6832 35.667 41.7293 35.6557 41.7662C35.3545 41.7662 34.7661 41.7293 34.2832 41.5532C33.749 41.3559 32.9524 40.3746 33.1363 39.2923C33.3671 39.151 33.9022 38.8491 34.4036 38.8491C34.7887 38.8491 35.0521 39.0313 35.236 39.4201ZM46.6165 40.5987C45.8608 41.1564 43.9141 42.5806 43.2073 43.0748L36.4105 41.851C36.4268 41.7908 36.4433 41.7293 36.4574 41.67C36.5463 41.3159 36.6383 40.8341 36.6424 40.2662L42.3556 40.3583L42.4649 40.2468C42.5516 40.1599 44.3614 38.4082 45.2837 37.4004C45.5032 37.6766 45.7769 37.9396 46.1374 38.1697C46.0149 38.8411 46.067 39.7946 46.6165 40.5987ZM37.3735 30.5169C38.1907 31.3301 38.9903 31.8357 39.7501 32.1138C39.6521 32.5068 39.5226 33.317 39.8881 34.1244C40.1874 34.7751 40.7297 35.2763 41.514 35.611C41.5999 36.4163 42.1084 37.6266 43.5127 38.1595C42.8969 38.7818 42.2984 39.3679 42.0563 39.6042L36.3553 39.5142C36.2266 39.4499 36.0052 39.3034 35.9069 39.0978C35.8958 39.0682 35.8774 39.0528 35.8652 39.0241L36.7956 39.1745C36.815 39.1775 36.8354 39.1775 36.8547 39.1775C37.0345 39.1775 37.1907 39.0528 37.2205 38.8676C37.2512 38.662 37.1142 38.4716 36.913 38.4399L35.7691 38.2588L37.0375 33.8656L35.8354 31.3301L33.9083 33.3714L33.7898 37.9396L32.4947 37.7329C32.2946 37.694 32.1037 37.8405 32.0679 38.0439C32.0372 38.2445 32.1742 38.4358 32.3774 38.4716L32.9207 38.5544C32.7266 38.6651 32.598 38.7531 32.5828 38.7652L32.4734 38.842L32.4428 38.978C32.1281 40.2601 32.8401 41.4765 33.6101 42.021L33.5825 42.1827C33.5508 42.38 33.5958 42.5723 33.7142 42.733C33.8266 42.8977 33.9972 42.9959 34.1913 43.0307C34.231 43.0379 34.2739 43.0409 34.3108 43.0409C34.6446 43.0409 34.9359 42.8097 35.0174 42.4721C35.3034 42.5058 35.5659 42.513 35.7457 42.513H35.8989L43.3779 43.8677L43.5055 43.7827C44.101 43.3652 46.3735 41.7067 47.1179 41.1575C47.3232 41.3344 47.5521 41.4939 47.8288 41.6269C47.5866 42.4363 47.5725 43.6836 48.5253 44.6688H29.4635V33.6487C29.4635 32.5816 29.1521 31.5081 28.7835 30.5169H37.3735ZM36.3431 13.8888L41.3169 15.5791V23.408L37.6545 21.4744L36.3431 13.8888ZM48.4784 12.9445C48.4784 11.0343 45.2683 9.31543 41.7255 9.31543H41.7059C38.1631 9.31543 34.953 11.0343 34.953 12.9445L35.0237 13.4141L36.4381 21.549L35.0174 22.3758L31.3407 24.5264H31.3539C31.3539 24.5264 30.5267 24.9519 30.1438 25.2138C28.7435 26.1879 28.4464 27.6091 29.2592 28.1963C29.4594 27.0371 30.3735 25.8267 32.0864 25.8267C33.3191 25.8267 34.2597 26.4642 35.0174 27.4198C35.2136 27.6613 35.3984 27.919 35.5709 28.1963C35.7835 28.5463 35.998 28.8531 36.2092 29.1489H26.7388C27.4353 30.5505 28.0971 32.0352 28.0971 33.6487V54.6463C28.0971 59.7292 31.9986 62.1551 36.2186 62.1551C39.4806 62.1551 39.9199 62.0058 41.7194 63.8023C43.5107 62.0058 43.9508 62.1551 47.215 62.1551C51.4381 62.1551 55.3343 59.7292 55.3343 54.6463V33.6487C55.3343 32.0352 55.9952 30.5505 56.6948 29.1489H47.2211C47.4326 28.8531 47.646 28.5463 47.8583 28.1963C48.0341 27.919 48.2178 27.6613 48.4099 27.4198C49.1749 26.46 50.1123 25.8267 51.3461 25.8267C53.0568 25.8267 53.9699 27.0371 54.1731 28.1963C54.9861 27.6091 54.6921 26.1879 53.2835 25.2138C52.9066 24.9519 52.0784 24.5264 52.0784 24.5264H52.0918L48.4099 22.3758L46.9944 21.549L48.4099 13.4141L48.4784 12.9445Z" fill="#1A1919"/>
</svg>
