<svg width="267" height="62" viewBox="0 0 267 62" fill="none" xmlns="http://www.w3.org/2000/svg">
<path d="M62.2966 12.1675V12.0477H61.4852V12.1675C61.4852 12.2873 60.9124 23.2094 60.7454 26.3951C59.934 40.0957 57.0463 43.1615 52.321 43.7843L52.2256 43.8082V49.5567H52.3449C55.4474 49.5567 57.7861 48.6945 59.5044 46.922C61.9386 44.407 63.0603 40.1196 62.8932 33.7963C62.6784 27.6166 62.2966 12.3112 62.2966 12.1675Z" fill="black"/>
<path d="M61.2705 9.96394L82.2003 9.17352V49.5568H87.4029V6.44298H61.2705V9.96394Z" fill="black"/>
<path d="M111.604 6.44324L91.1992 49.533H96.4734L102.273 35.0181L120.697 34.2756V33.3654L103.227 32.6468L112.917 9.74862L129.741 49.4851L129.789 49.557L135.779 49.533L116.997 6.41928L111.604 6.44324Z" fill="black"/>
<path d="M144.704 6.44298H139.501V49.5568H144.704V6.44298Z" fill="black"/>
<path d="M266.774 6.44298H261.547V49.5568H266.774V6.44298Z" fill="black"/>
<path d="M235.056 6.44298H229.806V49.5568H235.056V29.5568L259.303 28.455V27.6166L235.056 26.6825V6.44298Z" fill="black"/>
<path d="M172.983 6.44298H167.255L146.158 31.2813L146.779 31.8562L152.339 27.1855L170.668 49.5088L170.692 49.5568L176.944 49.5328L156.134 24.0478L172.983 6.44298Z" fill="black"/>
<path d="M42.9429 11.4731C38.9813 8.47904 33.7072 6.73054 28.4569 6.70659L29.0774 0H22.3952L25.2112 27.8563L23.0872 48.479L22.9679 48.4551C18.004 47.5449 13.9231 45.0778 10.8683 41.1737C7.88522 37.3653 6.31012 32.4311 6.33399 26.9222C6.33399 22.1317 7.6943 17.7485 10.2956 14.2755C12.8253 10.8743 16.3812 8.57485 20.5337 7.59282L20.6291 7.56886L20.5814 6.97006H20.4621C17.5744 6.97006 12.6582 8.23952 8.26706 11.7844C4.85436 14.5389 0.773438 19.5689 0.773438 27.8323C0.773438 34.8743 3.44632 40.6467 8.52957 44.503C12.4912 47.497 17.7415 49.2455 23.0156 49.2695L22.3952 55.9521H29.0774L26.2374 27.8802L28.3853 7.49701L28.5046 7.52096C33.4685 8.43114 37.5494 10.8982 40.6042 14.8024C43.5873 18.6108 45.1624 23.5449 45.1385 29.0539C45.1385 33.8443 43.7782 38.2276 41.1769 41.7006C38.6472 45.1018 35.0913 47.4012 30.9388 48.3832L30.8434 48.4072L30.8672 49.006H30.9866C33.8742 49.006 38.7904 47.7365 43.1816 44.1916C46.5943 41.4371 50.6752 36.4072 50.6752 28.1437C50.6991 21.0778 48.0023 15.3293 42.9429 11.4731Z" fill="black"/>
<path d="M200.333 49.964C193.317 49.9401 188.878 45.7006 186.396 42.2515C183.246 37.8203 181.432 31.8083 181.432 25.7964C181.432 16.4311 186.754 8.21555 194.176 6.37124L194.033 5.46106C188.878 6.56285 184.2 9.36525 180.835 13.3892C177.422 17.485 175.537 22.6587 175.537 27.9521C175.537 34.2994 177.971 40.1437 182.41 44.4311C186.778 48.6467 192.672 50.97 198.996 50.97C199.879 50.97 200.763 50.9221 201.669 50.8263L201.526 49.9161C201.216 49.9161 200.476 49.964 200.333 49.964Z" fill="black"/>
<path d="M197.732 5.94023C204.748 5.96418 209.187 10.2037 211.669 13.6528C214.819 18.0839 216.633 24.0959 216.633 30.1079C216.633 39.4731 211.311 47.6887 203.889 49.533L204.032 50.4432C209.187 49.3414 213.865 46.539 217.23 42.5151C220.642 38.4193 222.528 33.2456 222.528 27.9522C222.528 21.6049 220.094 15.7606 215.655 11.4732C211.287 7.25759 205.393 4.93424 199.068 4.93424C198.185 4.93424 197.302 4.98214 196.396 5.07795L196.539 5.98813C196.849 5.96418 197.589 5.94023 197.732 5.94023Z" fill="black"/>
</svg>
