<svg width="229" height="48" viewBox="0 0 229 48" fill="none" xmlns="http://www.w3.org/2000/svg">
<path d="M52.7803 10.4379V10.3351H52.0842V10.4379C52.0842 10.5406 51.5929 19.9105 51.4496 22.6434C50.7535 34.3968 48.2762 37.0269 44.2225 37.5612L44.1406 37.5817V42.5132H44.243C46.9045 42.5132 48.9109 41.7735 50.385 40.253C52.4732 38.0954 53.4355 34.4174 53.2921 28.9927C53.1079 23.6913 52.7803 10.5612 52.7803 10.4379Z" fill="#021526"/>
<path d="M51.9014 8.54777L69.8565 7.86969V42.5135H74.3197V5.52722H51.9014V8.54777Z" fill="#021526"/>
<path d="M95.0789 5.52738L77.5742 42.4931H82.0988L87.0739 30.0411L102.879 29.4041V28.6233L87.8928 28.0068L96.205 8.363L110.639 42.452L110.68 42.5136L115.818 42.4931L99.7059 5.50684L95.0789 5.52738Z" fill="#021526"/>
<path d="M123.476 5.52722H119.013V42.5135H123.476V5.52722Z" fill="#021526"/>
<path d="M228.196 5.52722H223.712V42.5135H228.196V5.52722Z" fill="#021526"/>
<path d="M200.988 5.52722H196.483V42.5135H200.988V25.356L221.788 24.4108V23.6916L200.988 22.8902V5.52722Z" fill="#021526"/>
<path d="M147.734 5.52722H142.82L124.722 26.8354L125.254 27.3286L130.024 23.3217L145.748 42.4724L145.768 42.5135L151.132 42.493L133.28 20.63L147.734 5.52722Z" fill="#021526"/>
<path d="M36.1762 9.84247C32.7777 7.27397 28.2531 5.77397 23.749 5.75342L24.2813 0H18.5488L20.9646 23.8973L19.1425 41.589L19.0401 41.5685C14.7817 40.7877 11.2808 38.6712 8.66018 35.3219C6.10103 32.0548 4.74979 27.8219 4.77027 23.0959C4.77027 18.9863 5.93724 15.226 8.16883 12.2466C10.339 9.32877 13.3895 7.35616 16.9518 6.5137L17.0337 6.49315L16.9928 5.97945H16.8904C14.4132 5.97945 10.1957 7.06849 6.4286 10.1096C3.50093 12.4726 0 16.7877 0 23.8767C0 29.9178 2.293 34.8699 6.65381 38.1781C10.0524 40.7466 14.5565 42.2466 19.0811 42.2671L18.5488 48H24.2813L21.845 23.9178L23.6875 6.43151L23.7899 6.45205C28.0483 7.23288 31.5493 9.34931 34.1698 12.6986C36.729 15.9658 38.0802 20.1986 38.0598 24.9247C38.0598 29.0342 36.8928 32.7945 34.6612 35.774C32.491 38.6918 29.4405 40.6644 25.8782 41.5068L25.7963 41.5274L25.8168 42.0411H25.9191C28.3964 42.0411 32.6139 40.9521 36.381 37.911C39.3086 35.5479 42.8096 31.2329 42.8096 24.1438C42.83 18.0822 40.5166 13.1507 36.1762 9.84247Z" fill="#021526"/>
<path d="M171.198 42.863C165.178 42.8424 161.37 39.2055 159.241 36.2466C156.539 32.4452 154.983 27.2877 154.983 22.1301C154.983 14.0959 159.548 7.04795 165.915 5.46576L165.793 4.68494C161.37 5.63014 157.358 8.03425 154.471 11.4863C151.543 15 149.926 19.4384 149.926 23.9794C149.926 29.4246 152.014 34.4383 155.822 38.1164C159.569 41.7329 164.626 43.726 170.051 43.726C170.809 43.726 171.566 43.6849 172.344 43.6027L172.221 42.8219C171.955 42.8219 171.32 42.863 171.198 42.863Z" fill="#021526"/>
<path d="M168.966 5.09617C174.985 5.11672 178.793 8.7537 180.922 11.7126C183.625 15.514 185.181 20.6715 185.181 25.829C185.181 33.8633 180.615 40.9112 174.248 42.4934L174.371 43.2742C178.793 42.329 182.806 39.9249 185.693 36.4729C188.62 32.9592 190.238 28.5208 190.238 23.9797C190.238 18.5345 188.149 13.5208 184.341 9.84274C180.595 6.2263 175.538 4.23315 170.112 4.23315C169.355 4.23315 168.597 4.27425 167.819 4.35644L167.942 5.13726C168.208 5.11672 168.843 5.09617 168.966 5.09617Z" fill="#021526"/>
</svg>
