<svg width="213" height="74" viewBox="0 0 213 74" fill="none" xmlns="http://www.w3.org/2000/svg">
<path d="M0.998047 19.8618C0.998047 23.4887 2.16563 26.4248 4.54404 28.6268C6.92246 30.8289 9.90628 31.9515 13.5388 31.9515C17.1712 31.9515 20.1551 30.8289 22.5335 28.6268C24.9119 26.4248 26.0795 23.4887 26.0795 19.8618V0.863554H21.7551V19.43C21.7551 21.8048 21.02 23.7478 19.5929 25.3022C18.1659 26.8566 16.1334 27.6338 13.5388 27.6338C10.9441 27.6338 8.91167 26.8566 7.48463 25.3022C6.05758 23.7478 5.32243 21.8048 5.32243 19.43V0.863554H0.998047V19.8618Z" fill="#021526"/>
<path d="M36.7377 31.088L45.6027 19.5595L54.4677 31.088H59.9164L48.3271 15.9758L59.9164 0.863554H54.4677L45.6027 12.4352L36.7377 0.863554H31.289L42.8784 15.9758L31.289 31.088H36.7377Z" fill="#021526"/>
<path d="M94.7257 31.088L84.6499 17.7029H94.2933V13.3851H74.1849C71.72 13.3851 69.6443 11.3126 69.6443 8.85144C69.6443 7.59928 70.0767 6.56302 70.9848 5.65628C72.7578 3.886 75.6119 3.886 77.3849 5.65628C78.2931 6.56302 78.7255 7.59928 78.7255 8.85144H83.0499C83.0499 6.39031 82.185 4.31777 80.4553 2.59066C78.7255 0.863554 76.6498 0 74.1849 0C71.72 0 69.6443 0.863554 67.9145 2.59066C66.1848 4.31777 65.3199 6.39031 65.3199 8.85144C65.3199 11.5285 66.3145 13.7305 68.3037 15.5008C66.0118 17.3575 64.8875 19.7322 64.8875 22.6683C64.8875 25.2158 65.7956 27.4179 67.6118 29.2313C69.4281 31.0448 71.6335 31.9515 74.1849 31.9515C76.6498 31.9515 78.7687 31.1311 80.5417 29.4472C82.3147 27.7633 83.3093 25.7339 83.4391 23.316L89.3202 31.088H94.7257ZM79.1579 22.6683C79.1579 24.0068 78.6823 25.1726 77.6876 26.1657C76.693 27.1588 75.5255 27.6338 74.1849 27.6338C72.8443 27.6338 71.6768 27.1588 70.6821 26.1657C68.7362 24.2227 68.7362 21.1139 70.6821 19.1709C71.6768 18.1778 72.8443 17.7029 74.1849 17.7029H79.1579V22.6683Z" fill="#021526"/>
<path d="M99.9015 19.8618C99.9015 23.4887 101.069 26.4248 103.447 28.6268C105.826 30.8289 108.81 31.9515 112.442 31.9515C116.075 31.9515 119.059 30.8289 121.437 28.6268C123.815 26.4248 124.983 23.4887 124.983 19.8618V0.863554H120.659V19.43C120.659 21.8048 119.923 23.7478 118.496 25.3022C117.069 26.8566 115.037 27.6338 112.442 27.6338C109.848 27.6338 107.815 26.8566 106.388 25.3022C104.961 23.7478 104.226 21.8048 104.226 19.43V0.863554H99.9015V19.8618Z" fill="#021526"/>
<path d="M145.976 31.088V26.7702H140.787V5.18133H145.976V0.863554H131.274V5.18133H136.463V26.7702H131.274V31.088H145.976Z" fill="#021526"/>
<path d="M18.3642 70.114V49.1894H15.3704V58.1571H3.99392V49.1894H1.00011V70.114H3.99392V61.1463H15.3704V70.114H18.3642Z" fill="#021526"/>
<path d="M27.6291 53.9423C29.2158 52.358 31.1019 51.5808 33.3472 51.5808C35.5926 51.5808 37.4787 52.358 39.0654 53.9423C40.6521 55.5266 41.4305 57.4098 41.4305 59.6517C41.4305 61.8936 40.6521 63.7768 39.0654 65.3611C37.4787 66.9454 35.5926 67.7226 33.3472 67.7226C31.1019 67.7226 29.2158 66.9454 27.6291 65.3611C26.0424 63.7768 25.264 61.8936 25.264 59.6517C25.264 57.4098 26.0424 55.5266 27.6291 53.9423ZM33.3472 48.5916C30.2936 48.5916 27.6889 49.6677 25.5035 51.8498C23.3479 54.0021 22.2702 56.6027 22.2702 59.6517C22.2702 62.7007 23.3479 65.3013 25.5035 67.4835C27.6889 69.6357 30.2936 70.7119 33.3472 70.7119C36.5207 70.7119 39.2151 69.5461 41.4305 67.2145V70.114H44.4243V49.1894H41.4305V52.089C39.2151 49.7574 36.5207 48.5916 33.3472 48.5916Z" fill="#021526"/>
<path d="M70.1827 74V70.682C73.1167 70.5325 75.6015 69.3966 77.6074 67.2742C79.6432 65.1519 80.6611 62.611 80.6611 59.6517C80.6611 56.6924 79.6432 54.1814 77.6074 52.0591C75.5716 49.9367 73.0867 48.7709 70.1827 48.6215V45.0045H67.1889V48.6215C64.285 48.7709 61.8001 49.9367 59.7643 52.0591C57.7285 54.1814 56.7106 56.6924 56.7106 59.6517C56.7106 62.611 57.7285 65.1519 59.7344 67.2742C61.7701 69.3966 64.255 70.5325 67.1889 70.682V74H70.1827ZM70.1827 51.6107C72.2784 51.7601 74.0448 52.627 75.4818 54.1814C76.9487 55.7059 77.6673 57.5294 77.6673 59.6517C77.6673 61.7741 76.9487 63.5975 75.4818 65.1519C74.0448 66.6764 72.2784 67.5433 70.1827 67.6927V51.6107ZM67.1889 67.6927C65.0933 67.5433 63.3269 66.6764 61.86 65.1519C60.4229 63.5975 59.7044 61.7741 59.7044 59.6517C59.7044 57.5294 60.4229 55.7059 61.86 54.1814C63.3269 52.627 65.0933 51.7601 67.1889 51.6107V67.6927Z" fill="#021526"/>
<path d="M84.8571 70.2635C87.7012 70.2635 89.3478 68.6792 89.3478 65.7796V52.1786H98.6286V70.114H101.622V49.1894H86.354V65.0323C86.354 66.6764 85.5756 67.2742 84.1086 67.2742H82.9111V70.2635H84.8571Z" fill="#021526"/>
<path d="M110.865 53.9423C112.452 52.358 114.338 51.5808 116.583 51.5808C118.829 51.5808 120.715 52.358 122.301 53.9423C123.888 55.5266 124.666 57.4098 124.666 59.6517C124.666 61.8936 123.888 63.7768 122.301 65.3611C120.715 66.9454 118.829 67.7226 116.583 67.7226C114.338 67.7226 112.452 66.9454 110.865 65.3611C109.278 63.7768 108.5 61.8936 108.5 59.6517C108.5 57.4098 109.278 55.5266 110.865 53.9423ZM116.583 48.5916C113.53 48.5916 110.925 49.6677 108.739 51.8498C106.584 54.0021 105.506 56.6027 105.506 59.6517C105.506 62.7007 106.584 65.3013 108.739 67.4835C110.925 69.6357 113.53 70.7119 116.583 70.7119C119.757 70.7119 122.451 69.5461 124.666 67.2145V70.114H127.66V49.1894H124.666V52.089C122.451 49.7574 119.757 48.5916 116.583 48.5916Z" fill="#021526"/>
<path d="M143.92 49.1894L135.148 55.7956V49.1894H132.154V70.114H135.148V61.3855L144.878 70.114H149.369L136.346 58.456L148.77 49.1894H143.92Z" fill="#021526"/>
<path d="M155.187 53.9423C156.774 52.358 158.66 51.5808 160.906 51.5808C163.151 51.5808 165.037 52.358 166.624 53.9423C168.21 55.5266 168.989 57.4098 168.989 59.6517C168.989 61.8936 168.21 63.7768 166.624 65.3611C165.037 66.9454 163.151 67.7226 160.906 67.7226C158.66 67.7226 156.774 66.9454 155.187 65.3611C153.601 63.7768 152.822 61.8936 152.822 59.6517C152.822 57.4098 153.601 55.5266 155.187 53.9423ZM153.062 67.4835C155.247 69.6357 157.852 70.7119 160.906 70.7119C163.959 70.7119 166.564 69.6357 168.719 67.4835C170.905 65.3013 171.983 62.7007 171.983 59.6517C171.983 56.6027 170.905 54.0021 168.719 51.8498C166.564 49.6677 163.959 48.5916 160.906 48.5916C157.852 48.5916 155.247 49.6677 153.062 51.8498C150.906 54.0021 149.828 56.6027 149.828 59.6517C149.828 62.7007 150.906 65.3013 153.062 67.4835Z" fill="#021526"/>
<path d="M193.227 70.114V49.1894H190.233V58.1571H178.857V49.1894H175.863V70.114H178.857V61.1463H190.233V70.114H193.227Z" fill="#021526"/>
<path d="M213 70.114V67.1248H200.726V61.1463H211.503V58.1571H200.726V52.1786H213V49.1894H197.732V70.114H213Z" fill="#021526"/>
</svg>
