<svg width="386" height="120" viewBox="0 0 386 120" fill="none" xmlns="http://www.w3.org/2000/svg">
<path d="M6.12582 45.1724V6.19263H112.242V45.1724C112.242 73.4082 95.0805 95.5443 60.2448 111.76L59.1838 112.25C23.6354 95.9909 6.12582 73.6935 6.12582 45.1724Z" fill="url(#paint0_linear)"/>
<path d="M118 0.422607V20.5263H112.242V6.1929H6.1259V45.1726C6.1259 73.4085 23.2871 95.5446 58.1228 111.761L59.1838 112.25L60.2449 111.761C77.2099 103.863 89.983 94.5621 98.6236 83.8361L105.849 83.8352C96.4655 97.0747 81.6719 108.309 61.5501 117.511L60.3603 118.05L59.1838 118.577L58.0074 118.05C20.1456 101.063 0.75747 77.0215 0.373494 46.1114L0.367676 45.1726V0.422607H118Z" fill="black"/>
<path d="M118 0.422607V20.5263H112.242V6.1929H6.1259V45.1726C6.1259 73.4085 23.2871 95.5446 58.1228 111.761L59.1838 112.25L60.2449 111.761C77.2099 103.863 89.983 94.5621 98.6236 83.8361L105.849 83.8352C96.4655 97.0747 81.6719 108.309 61.5501 117.511L60.3603 118.05L59.1838 118.577L58.0074 118.05C20.1456 101.063 0.75747 77.0215 0.373494 46.1114L0.367676 45.1726V0.422607H118Z" fill="#021526"/>
<path d="M56.1 56.116V33.6H49.548V56.324C49.548 62.044 46.324 65.164 40.916 65.164C35.508 65.164 32.232 62.044 32.232 56.324V33.6H25.68V56.116C25.68 65.268 31.452 70.52 40.916 70.52C50.328 70.52 56.1 65.268 56.1 56.116ZM68.4057 70L77.4537 55.96L86.9697 70H94.2497L81.6137 51.644L93.8857 33.6H86.8137L78.0257 47.016L68.9257 33.6H61.5937L73.7617 51.176L61.4377 70H68.4057ZM137.482 35.212L145.022 56.272H129.942L137.482 35.212ZM122.298 70H125.054L129.11 58.612H145.854L149.962 70H152.874L139.51 32.82H135.662L122.298 70ZM175.613 70H179.045L164.901 55.648L178.161 42.804H174.885L161.625 55.804V42.804H158.869V70H161.625V55.804L175.613 70ZM191.391 68.18C186.919 68.18 184.735 66.152 184.735 62.668C184.735 57.78 189.155 56.584 194.823 56.584H200.387V61.212C200.387 65.268 196.383 68.18 191.391 68.18ZM191.183 70.416C195.759 70.416 198.671 68.492 200.387 65.84V70H203.143V52.008C203.143 45.092 199.295 42.388 193.627 42.388C188.479 42.388 183.799 44.78 183.175 50.5H185.879C186.503 46.496 189.415 44.728 193.523 44.728C198.307 44.728 200.387 46.912 200.387 52.008V54.452H194.719C188.011 54.452 181.979 56.376 181.979 62.668C181.979 67.816 185.827 70.416 191.183 70.416ZM215.951 57.884C216.367 53.932 216.731 48.056 216.887 45.092H229.003V67.66H213.351C214.859 66.048 215.431 62.772 215.951 57.884ZM210.439 70H233.163L233.371 76.604H235.607V67.66H231.707V42.804H214.443C214.443 42.804 214.027 52.164 213.403 57.624C212.831 62.98 212.311 66.984 209.815 67.66H207.995V76.604H210.231L210.439 70ZM251.749 70.416C257.573 70.416 261.889 67.608 263.033 62.408H260.277C259.341 66.204 256.273 68.076 251.749 68.076C245.301 68.076 241.817 63.916 241.713 56.636H263.241V55.648C263.241 46.652 257.885 42.388 251.333 42.388C244.053 42.388 238.853 48.056 238.853 56.272V56.688C238.853 64.852 243.897 70.416 251.749 70.416ZM241.817 54.4C242.337 48.472 246.081 44.728 251.333 44.728C256.637 44.728 260.121 47.796 260.381 54.4H241.817ZM282.31 70H283.61L293.958 45.664V70H296.714V42.804H292.918L283.142 65.632L273.678 42.804H269.726V70H272.118V45.664L282.31 70ZM308.08 70L324.252 46.808V70H327.008V42.804H324.252L308.08 65.944V42.804H305.324V70H308.08ZM350.416 45.04V56.792H344.384C339.548 56.792 337.208 54.764 337.208 51.072V50.916C337.208 47.068 339.444 45.04 343.864 45.04H350.416ZM343.916 58.924H350.416V70H353.224V42.804H344.02C338.508 42.804 334.452 45.248 334.452 50.916V51.072C334.452 55.544 337.26 57.78 341.16 58.456L332.788 70H336.012L343.916 58.924Z" fill="#021526"/>
<defs>
<linearGradient id="paint0_linear" x1="5.90617" y1="5.9611" x2="112.369" y2="5.9611" gradientUnits="userSpaceOnUse">
<stop stop-color="white"/>
<stop offset="1" stop-color="#DFDFDF"/>
</linearGradient>
</defs>
</svg>
