<svg width="218" height="46" viewBox="0 0 218 46" fill="none" xmlns="http://www.w3.org/2000/svg">
<path d="M50.9328 10.1353V10.0378H50.2725V10.1353C50.2725 10.2328 49.8064 19.121 49.6705 21.7134C49.0102 32.8627 46.6602 35.3576 42.8149 35.8644L42.7372 35.8839V40.5619H42.8343C45.3591 40.5619 47.2623 39.8602 48.6606 38.4178C50.6415 36.3712 51.5543 32.8822 51.4184 27.7363C51.2436 22.7075 50.9328 10.2523 50.9328 10.1353Z" fill="black"/>
<path d="M50.0978 8.34209L67.13 7.69886V40.5619H71.3638V5.47681H50.0978V8.34209Z" fill="black"/>
<path d="M91.0565 5.47701L74.4516 40.5426H78.7436L83.4629 28.7306L98.4559 28.1264V27.3857L84.2398 26.8009L92.1247 8.16687L105.816 40.5036L105.855 40.5621L110.73 40.5426L95.4457 5.45752L91.0565 5.47701Z" fill="black"/>
<path d="M117.993 5.47681H113.76V40.5619H117.993V5.47681Z" fill="black"/>
<path d="M217.331 5.47681H213.078V40.5619H217.331V5.47681Z" fill="black"/>
<path d="M191.521 5.47681H187.248V40.5619H191.521V24.2863L211.253 23.3897V22.7075L191.521 21.9473V5.47681Z" fill="black"/>
<path d="M141.007 5.47681H136.346L119.178 25.6897L119.683 26.1575L124.208 22.3566L139.123 40.5229L139.143 40.5619L144.231 40.5424L127.296 19.8032L141.007 5.47681Z" fill="black"/>
<path d="M35.1826 9.57018C31.9588 7.13371 27.6668 5.71081 23.3942 5.69132L23.8991 0.233643H18.4613L20.7529 22.9025L19.0245 39.6849L18.9274 39.6654C14.8878 38.9247 11.5669 36.9171 9.08099 33.7399C6.65338 30.6407 5.37161 26.6254 5.39103 22.1423C5.39103 18.244 6.49802 14.677 8.61489 11.8507C10.6735 9.08288 13.5672 7.21168 16.9464 6.41252L17.0241 6.39303L16.9853 5.90573H16.8882C14.5383 5.90573 10.5376 6.93879 6.96412 9.82357C4.18693 12.0651 0.865967 16.1584 0.865967 22.883C0.865967 28.6136 3.0411 33.3111 7.17775 36.4493C10.4016 38.8857 14.6742 40.3086 18.9662 40.3281L18.4613 45.7663H23.8991L21.588 22.922L23.3359 6.33455L23.433 6.35404C27.4725 7.09473 30.7935 9.10237 33.2794 12.2795C35.707 15.3787 36.9888 19.394 36.9693 23.8771C36.9693 27.7754 35.8624 31.3424 33.7455 34.1687C31.6869 36.9365 28.7932 38.8078 25.4139 39.6069L25.3363 39.6264L25.3557 40.1137H25.4528C27.8027 40.1137 31.8034 39.0806 35.3768 36.1959C38.154 33.9543 41.475 29.8611 41.475 23.1364C41.4944 17.3864 39.2999 12.7083 35.1826 9.57018Z" fill="black"/>
<path d="M163.263 40.8933C157.553 40.8738 153.941 37.4238 151.921 34.617C149.358 31.011 147.882 26.1186 147.882 21.2262C147.882 13.6049 152.213 6.91928 158.253 5.41842L158.136 4.67773C153.941 5.57435 150.135 7.85488 147.396 11.1295C144.619 14.4626 143.085 18.6728 143.085 22.9804C143.085 28.1457 145.066 32.9017 148.678 36.3907C152.232 39.8213 157.029 41.712 162.176 41.712C162.894 41.712 163.613 41.673 164.351 41.595L164.234 40.8543C163.982 40.8543 163.38 40.8933 163.263 40.8933Z" fill="black"/>
<path d="M161.147 5.06767C166.856 5.08717 170.469 8.5372 172.488 11.344C175.052 14.95 176.528 19.8424 176.528 24.7348C176.528 32.3561 172.197 39.0417 166.157 40.5426L166.274 41.2833C170.469 40.3866 174.275 38.1061 177.013 34.8315C179.791 31.4984 181.325 27.2882 181.325 22.9806C181.325 17.8153 179.344 13.0593 175.732 9.57026C172.178 6.13972 167.381 4.24902 162.234 4.24902C161.516 4.24902 160.797 4.28801 160.059 4.36597L160.176 5.10666C160.428 5.08717 161.03 5.06767 161.147 5.06767Z" fill="black"/>
</svg>
