<svg width="169" height="56" viewBox="0 0 169 56" fill="none" xmlns="http://www.w3.org/2000/svg">
<path d="M0 55.4261H27.713V41.5695H0V27.713H55.4261V13.8565H27.713V0H55.4261L0 55.4261ZM0 13.8565V0L55.4261 55.4261V41.6561L0 13.8565Z" fill="#021526"/>
<path d="M85.5907 36.9504C89.9717 36.9504 92.2139 34.7648 92.2139 31.5205C92.2139 27.7298 89.5922 26.9102 85.8667 26.2272C82.5551 25.6467 81.6582 24.9978 81.6582 23.3927C81.6582 21.856 83.0035 20.8315 85.0733 20.8315C87.35 20.8315 88.4539 21.6852 88.8678 23.6318H91.6275C91.1446 19.7728 88.3504 18.4751 85.1078 18.4751C82.2791 18.4751 79.002 20.1826 79.002 23.4952C79.002 26.6029 80.5888 27.9006 85.2803 28.7544C88.0744 29.2666 89.4888 29.8813 89.4888 31.7596C89.4888 33.672 88.2814 34.5941 85.5562 34.5941C82.6586 34.5941 81.5202 33.2622 81.3132 31.1449H78.519C78.6915 34.799 81.2787 36.9504 85.5907 36.9504Z" fill="#021526"/>
<path d="M103.959 36.9504C108.029 36.9504 111.03 35.0722 111.651 31.4864H108.788C108.409 33.5696 106.787 34.5941 103.993 34.5941C100.302 34.5941 98.3359 32.3401 98.1979 28.2763H111.789V27.3542C111.789 20.9681 107.857 18.4751 103.683 18.4751C98.7153 18.4751 95.2313 22.2316 95.2313 27.6274V27.9006C95.2313 33.3988 98.8533 36.9504 103.959 36.9504ZM98.3014 25.9882C98.7843 22.8122 100.751 20.8315 103.683 20.8315C106.649 20.8315 108.581 22.2999 108.857 25.9882H98.3014Z" fill="#021526"/>
<path d="M116.183 36.6431H119.046V25.8174C119.046 22.6073 121.426 20.9339 124.082 20.9339C126.98 20.9339 128.325 22.3341 128.325 25.4759V36.6431H131.188V25.6808C131.188 20.49 128.567 18.4751 124.841 18.4751C121.875 18.4751 119.874 19.9436 119.046 21.6169V18.7825H116.183V36.6431Z" fill="#021526"/>
<path d="M142.388 36.9504C146.769 36.9504 149.011 34.7648 149.011 31.5205C149.011 27.7298 146.389 26.9102 142.664 26.2272C139.352 25.6467 138.455 24.9978 138.455 23.3927C138.455 21.856 139.801 20.8315 141.87 20.8315C144.147 20.8315 145.251 21.6852 145.665 23.6318H148.425C147.942 19.7728 145.147 18.4751 141.905 18.4751C139.076 18.4751 135.799 20.1826 135.799 23.4952C135.799 26.6029 137.386 27.9006 142.077 28.7544C144.871 29.2666 146.286 29.8813 146.286 31.7596C146.286 33.672 145.078 34.5941 142.353 34.5941C139.456 34.5941 138.317 33.2622 138.11 31.1449H135.316C135.489 34.799 138.076 36.9504 142.388 36.9504Z" fill="#021526"/>
<path d="M160.756 36.9504C164.826 36.9504 167.827 35.0722 168.448 31.4864H165.585C165.206 33.5696 163.584 34.5941 160.79 34.5941C157.099 34.5941 155.133 32.3401 154.995 28.2763H168.586V27.3542C168.586 20.9681 164.654 18.4751 160.48 18.4751C155.512 18.4751 152.028 22.2316 152.028 27.6274V27.9006C152.028 33.3988 155.65 36.9504 160.756 36.9504ZM155.098 25.9882C155.581 22.8122 157.548 20.8315 160.48 20.8315C163.446 20.8315 165.378 22.2999 165.654 25.9882H155.098Z" fill="#021526"/>
</svg>
