<svg width="185" height="62" viewBox="0 0 185 62" fill="none" xmlns="http://www.w3.org/2000/svg">
<path d="M0 55.4261H27.713V41.5695H0V27.713H55.4261V13.8565H27.713V0H55.4261L0 55.4261ZM0 13.8565V0L55.4261 55.4261V41.6561L0 13.8565Z" fill="#021526"/>
<path d="M84.8887 35C88.5367 35 90.4039 33.1072 90.4039 30.2976C90.4039 27.0148 88.2208 26.305 85.1185 25.7135C82.3608 25.2107 81.614 24.6488 81.614 23.2588C81.614 21.9279 82.7343 21.0407 84.4578 21.0407C86.3536 21.0407 87.2728 21.78 87.6175 23.4658H89.9156C89.5134 20.1238 87.1867 19 84.4865 19C82.131 19 79.4022 20.4787 79.4022 23.3475C79.4022 26.0388 80.7235 27.1627 84.6301 27.902C86.9569 28.3457 88.1346 28.878 88.1346 30.5046C88.1346 32.1608 87.1292 32.9593 84.8599 32.9593C82.447 32.9593 81.4991 31.8059 81.3267 29.9723H79C79.1436 33.1368 81.298 35 84.8887 35Z" fill="#021526"/>
<path d="M100.184 35C103.573 35 106.073 33.3734 106.59 30.268H104.205C103.889 32.0721 102.539 32.9593 100.213 32.9593C97.139 32.9593 95.5017 31.0074 95.3868 27.488H106.705V26.6895C106.705 21.159 103.43 19 99.9541 19C95.8177 19 92.9164 22.2532 92.9164 26.9261V27.1627C92.9164 31.9242 95.9326 35 100.184 35ZM95.473 25.5065C95.8751 22.756 97.5125 21.0407 99.9541 21.0407C102.424 21.0407 104.033 22.3124 104.263 25.5065H95.473Z" fill="#021526"/>
<path d="M110.363 34.7338H112.747V25.3586C112.747 22.5786 114.729 21.1294 116.941 21.1294C119.354 21.1294 120.474 22.342 120.474 25.0628V34.7338H122.858V25.2403C122.858 20.7449 120.675 19 117.573 19C115.103 19 113.437 20.2717 112.747 21.7209V19.2662H110.363V34.7338Z" fill="#021526"/>
<path d="M132.184 35C135.832 35 137.699 33.1072 137.699 30.2976C137.699 27.0148 135.516 26.305 132.414 25.7135C129.656 25.2107 128.909 24.6488 128.909 23.2588C128.909 21.9279 130.03 21.0407 131.753 21.0407C133.649 21.0407 134.568 21.78 134.913 23.4658H137.211C136.809 20.1238 134.482 19 131.782 19C129.427 19 126.698 20.4787 126.698 23.3475C126.698 26.0388 128.019 27.1627 131.926 27.902C134.252 28.3457 135.43 28.878 135.43 30.5046C135.43 32.1608 134.425 32.9593 132.155 32.9593C129.743 32.9593 128.795 31.8059 128.622 29.9723H126.295C126.439 33.1368 128.594 35 132.184 35Z" fill="#021526"/>
<path d="M147.479 35C150.869 35 153.368 33.3734 153.885 30.268H151.501C151.185 32.0721 149.835 32.9593 147.508 32.9593C144.435 32.9593 142.797 31.0074 142.682 27.488H154V26.6895C154 21.159 150.725 19 147.25 19C143.113 19 140.212 22.2532 140.212 26.9261V27.1627C140.212 31.9242 143.228 35 147.479 35ZM142.768 25.5065C143.171 22.756 144.808 21.0407 147.25 21.0407C149.72 21.0407 151.329 22.3124 151.558 25.5065H142.768Z" fill="#021526"/>
</svg>
