<svg width="109" height="36" viewBox="0 0 109 36" fill="none" xmlns="http://www.w3.org/2000/svg">
<path d="M0 35.3571H17.6785V26.5178H0V17.6785H35.3571V8.83927H17.6785V0H35.3571L0 35.3571ZM0 8.83927V0L35.3571 35.3571V26.5731L0 8.83927Z" fill="#021526"/>
<path d="M50.0643 19.9287C52.1984 19.9287 53.2907 18.864 53.2907 17.2836C53.2907 15.437 52.0136 15.0378 50.1987 14.705C48.5855 14.4223 48.1486 14.1062 48.1486 13.3243C48.1486 12.5757 48.804 12.0766 49.8122 12.0766C50.9213 12.0766 51.459 12.4925 51.6607 13.4407H53.005C52.7698 11.5609 51.4086 10.9287 49.829 10.9287C48.4511 10.9287 46.8547 11.7605 46.8547 13.3742C46.8547 14.8881 47.6277 15.5202 49.9131 15.9361C51.2742 16.1856 51.9632 16.4851 51.9632 17.4001C51.9632 18.3317 51.375 18.7809 50.0475 18.7809C48.6359 18.7809 48.0814 18.1321 47.9805 17.1006H46.6194C46.7034 18.8807 47.9637 19.9287 50.0643 19.9287Z" fill="#021526"/>
<path d="M59.0121 19.9287C60.9947 19.9287 62.4566 19.0138 62.7591 17.267H61.3645C61.1798 18.2818 60.3897 18.7809 59.0286 18.7809C57.2306 18.7809 56.2729 17.6829 56.2056 15.7032H62.8264V15.254C62.8264 12.1431 60.9109 10.9287 58.8776 10.9287C56.4577 10.9287 54.7605 12.7586 54.7605 15.3871V15.5202C54.7605 18.1986 56.5249 19.9287 59.0121 19.9287ZM56.2561 14.5886C56.4913 13.0415 57.4493 12.0766 58.8776 12.0766C60.3225 12.0766 61.2636 12.7919 61.3981 14.5886H56.2561Z" fill="#021526"/>
<path d="M64.9668 19.779H66.3615V14.5054C66.3615 12.9417 67.5209 12.1265 68.8147 12.1265C70.2264 12.1265 70.8816 12.8086 70.8816 14.3391V19.779H72.2763V14.4389C72.2763 11.9102 70.9995 10.9287 69.1844 10.9287C67.7396 10.9287 66.7648 11.6441 66.3615 12.4592V11.0785H64.9668V19.779Z" fill="#021526"/>
<path d="M77.7321 19.9287C79.8663 19.9287 80.9585 18.864 80.9585 17.2836C80.9585 15.437 79.6812 15.0378 77.8666 14.705C76.2532 14.4223 75.8162 14.1062 75.8162 13.3243C75.8162 12.5757 76.4719 12.0766 77.4798 12.0766C78.589 12.0766 79.1268 12.4925 79.3285 13.4407H80.673C80.4377 11.5609 79.0762 10.9287 77.4969 10.9287C76.1187 10.9287 74.5224 11.7605 74.5224 13.3742C74.5224 14.8881 75.2955 15.5202 77.5806 15.9361C78.9417 16.1856 79.631 16.4851 79.631 17.4001C79.631 18.3317 79.0425 18.7809 77.7151 18.7809C76.3039 18.7809 75.749 18.1321 75.6482 17.1006H74.2871C74.3714 18.8807 75.6316 19.9287 77.7321 19.9287Z" fill="#021526"/>
<path d="M86.6802 19.9287C88.6628 19.9287 90.1247 19.0138 90.4273 17.267H89.0326C88.848 18.2818 88.0578 18.7809 86.6968 18.7809C84.8987 18.7809 83.941 17.6829 83.8738 15.7032H90.4945V15.254C90.4945 12.1431 88.5791 10.9287 86.5457 10.9287C84.1257 10.9287 82.4285 12.7586 82.4285 15.3871V15.5202C82.4285 18.1986 84.1929 19.9287 86.6802 19.9287ZM83.924 14.5886C84.1593 13.0415 85.1175 12.0766 86.5457 12.0766C87.9906 12.0766 88.9318 12.7919 89.0662 14.5886H83.924Z" fill="#021526"/>
</svg>
