<svg width="291" height="58" viewBox="0 0 291 58" fill="none" xmlns="http://www.w3.org/2000/svg">
<path fill-rule="evenodd" clip-rule="evenodd" d="M57.0479 0.123779H60.3051V55.7091H57.0479V0.123779Z" fill="#021526"/>
<path fill-rule="evenodd" clip-rule="evenodd" d="M29.9048 0.123779H33.162V55.7091H29.9048V0.123779Z" fill="#021526"/>
<path fill-rule="evenodd" clip-rule="evenodd" d="M2.76172 0.123779H6.01895V55.7091H2.76172V0.123779Z" fill="#021526"/>
<path d="M84.521 30.8845C84.6028 32.6488 85.2227 34.129 86.3817 35.3252C87.5406 36.5214 89.5123 37.1202 92.2962 37.1202C94.8818 37.1202 96.8065 36.5469 98.0704 35.4003C99.3342 34.2537 99.9665 32.8923 99.9665 31.3154C99.9665 29.6837 99.3622 28.4875 98.1542 27.7268C97.3802 27.2417 95.8561 26.7402 93.5825 26.2218L91.4902 25.7425C90.5759 25.5329 89.8843 25.2913 89.4156 25.0164C88.6028 24.5548 88.1967 23.9397 88.1967 23.1705C88.1967 22.4673 88.506 21.9018 89.124 21.4728C89.7426 21.0445 90.6522 20.8303 91.8533 20.8303C93.6554 20.8303 94.9213 21.2201 95.6517 21.9985C96.0986 22.5469 96.3521 23.1555 96.4114 23.8241H99.3451C99.3683 22.6775 98.9895 21.608 98.208 20.6155C96.9605 19.0504 94.9261 18.2668 92.1048 18.2668C89.9477 18.2668 88.2308 18.7853 86.954 19.8215C85.6772 20.8578 85.0388 22.2146 85.0388 23.8901C85.0388 25.3122 85.7174 26.4261 87.0732 27.2306C87.8336 27.6935 89.0143 28.1127 90.6161 28.4875L93.124 29.083C94.4682 29.4029 95.3683 29.6837 95.8247 29.9266C96.5381 30.3236 96.8944 30.9021 96.8944 31.6628C96.8944 32.6664 96.4482 33.4075 95.5556 33.8874C94.6631 34.3673 93.6295 34.607 92.4556 34.607C90.4825 34.607 89.0974 34.1277 88.2989 33.1679C87.8642 32.6383 87.6005 31.8776 87.5065 30.8851H84.521V30.8845Z" fill="#021526"/>
<path d="M103.331 36.4413H106.437V27.0473C106.437 24.6881 106.961 23.0838 108.008 22.2343C109.054 21.3855 110.222 20.9604 111.511 20.9604C113.064 20.9604 114.122 21.4456 114.687 22.4159C115.031 23.0225 115.204 23.9764 115.204 25.2771V36.4406H118.397V25.0793C118.397 23.3372 118.138 21.9758 117.62 20.9944C116.665 19.1975 114.848 18.299 112.167 18.299C110.672 18.299 109.423 18.6131 108.423 19.2412C107.836 19.6056 107.174 20.2337 106.438 21.1269V12.064H103.332V36.4413H103.331Z" fill="#021526"/>
<path d="M122.918 18.7278V30.7676C122.918 32.2785 123.173 33.4858 123.68 34.3895C124.617 36.0761 126.378 36.9197 128.963 36.9197C130.623 36.9197 132.033 36.4567 133.196 35.5308C133.783 35.0679 134.275 34.4998 134.671 33.8273L134.636 36.4404H137.57V18.7278H134.463V27.4271C134.463 29.158 134.256 30.5194 133.841 31.5119C133.079 33.3637 131.645 34.2902 129.539 34.2902C128.071 34.2902 127.068 33.7607 126.53 32.7029C126.239 32.1296 126.093 31.3905 126.093 30.4861V18.7278H122.918Z" fill="#021526"/>
<path d="M140.563 18.7278L147.38 36.4404H150.69L157.648 18.7278H154.248L149.105 33.1495L144.17 18.7278H140.563Z" fill="#021526"/>
<path d="M162.695 31.7344C162.695 30.6015 163.176 29.7762 164.136 29.259C164.703 28.9509 165.549 28.7256 166.675 28.5819L168.552 28.3508C169.126 28.2848 169.712 28.1745 170.308 28.0197C170.905 27.865 171.393 27.6711 171.773 27.4393V29.8336C171.773 31.6613 170.909 32.9763 169.184 33.7801C168.16 34.2646 167.102 34.5068 166.009 34.5068C165.111 34.5068 164.335 34.2594 163.679 33.7644C163.024 33.2695 162.695 32.5924 162.695 31.7344ZM165.267 26.3162C163.529 26.5251 162.126 27.0814 161.056 27.9845C159.987 28.8875 159.452 30.1595 159.452 31.8003C159.452 33.2976 159.995 34.5454 161.083 35.5411C162.17 36.5375 163.57 37.0364 165.284 37.0364C166.711 37.0364 168.017 36.7445 169.202 36.1601C170.387 35.5757 171.296 34.8868 171.929 34.0929C172.032 34.7987 172.211 35.3446 172.463 35.7298C172.947 36.4572 173.723 36.8209 174.793 36.8209C175.23 36.8209 175.575 36.8046 175.829 36.7713C176.081 36.7386 176.45 36.6557 176.933 36.5231V34.324C176.737 34.3573 176.553 34.3815 176.38 34.3984C176.208 34.4148 176.053 34.4232 175.914 34.4232C175.489 34.4232 175.209 34.3299 175.077 34.1425C174.945 33.9551 174.878 33.707 174.878 33.3988V23.1944C174.878 21.5183 174.206 20.2836 172.861 19.4896C171.506 18.6956 169.741 18.2986 167.57 18.2986C165.697 18.2986 164.05 18.7269 162.631 19.5836C161.212 20.4403 160.474 21.9636 160.416 24.153H163.315C163.43 23.2336 163.677 22.5408 164.055 22.0753C164.733 21.2336 165.881 20.8118 167.5 20.8118C168.901 20.8118 169.977 21.0416 170.729 21.5007C171.481 21.9603 171.857 22.6988 171.857 23.7174C171.857 24.2156 171.788 24.5976 171.65 24.8627C171.409 25.3472 170.931 25.6332 170.218 25.7213L165.267 26.3162Z" fill="#021526"/>
<path d="M187.596 18.3313C185.012 18.3313 182.919 19.2187 181.319 20.994C179.718 22.7694 178.918 25.0789 178.918 27.9238C178.918 30.8125 179.712 33.0593 181.302 34.6629C182.891 36.2672 184.829 37.0697 187.116 37.0697C188.052 37.0697 188.891 36.9816 189.633 36.8053C191.014 36.4964 192.174 35.9016 193.11 35.0194C193.669 34.5121 194.176 33.8591 194.631 33.0599C195.085 32.2607 195.353 31.5359 195.433 30.885H192.379C192.155 31.6718 191.774 32.3639 191.238 32.962C190.28 33.9923 188.995 34.5075 187.386 34.5075C185.662 34.5075 184.39 33.963 183.568 32.8738C182.746 31.7854 182.306 30.3391 182.249 28.5369H195.692C195.692 26.7511 195.6 25.4498 195.417 24.6336C195.212 23.4426 194.8 22.4011 194.183 21.5079C193.542 20.5709 192.61 19.8076 191.387 19.2174C190.162 18.6271 188.899 18.3313 187.596 18.3313ZM182.317 26.1706C182.374 24.6493 182.882 23.3956 183.84 22.4083C184.798 21.4217 185.985 20.9281 187.399 20.9281C189.373 20.9281 190.781 21.645 191.626 23.0783C192.082 23.85 192.373 24.8811 192.499 26.1706H182.317Z" fill="#021526"/>
<path d="M197.546 18.7278L204.363 36.4404H207.673L214.63 18.7278H211.231L206.088 33.1495L201.153 18.7278H197.546Z" fill="#021526"/>
<path d="M218.04 36.4413H221.646V32.8357H218.04V36.4413Z" fill="#021526"/>
<path d="M234.244 18.2158C231.805 18.2158 229.798 19.0816 228.222 20.8126C226.646 22.5436 225.857 24.9641 225.857 28.0734C225.857 30.6095 226.576 32.7238 228.014 34.4156C229.452 36.108 231.379 36.9542 233.795 36.9542C235.947 36.9542 237.713 36.411 239.093 35.3251C240.474 34.2393 241.336 32.522 241.682 30.1733H238.661C238.374 31.4799 237.853 32.5096 237.1 33.2618C236.347 34.014 235.325 34.3908 234.037 34.3908C232.356 34.3908 231.126 33.7848 230.344 32.5736C229.562 31.3624 229.17 29.8697 229.17 28.0969C229.17 26.3353 229.446 24.8537 229.998 23.6536C230.85 21.8038 232.265 20.8786 234.244 20.8786C235.694 20.8786 236.746 21.2396 237.402 21.9618C238.057 22.684 238.477 23.5909 238.661 24.6827H241.682C241.417 22.3124 240.631 20.6422 239.326 19.6713C238.021 18.701 236.327 18.2158 234.244 18.2158Z" fill="#021526"/>
<path d="M252.061 34.5063C250.207 34.5063 248.853 33.8788 248 32.6232C247.147 31.3682 246.72 29.7985 246.72 27.9154C246.72 25.9553 247.147 24.2817 248 22.8942C248.853 21.5067 250.218 20.8126 252.095 20.8126C254.211 20.8126 255.702 21.6281 256.566 23.2579C257.113 24.2928 257.386 25.6366 257.386 27.2879C257.386 29.1162 257.008 30.7766 256.251 32.2686C255.494 33.7606 254.097 34.5063 252.061 34.5063ZM252.181 18.2158C249.543 18.2158 247.441 19.0973 245.875 20.8596C244.31 22.6219 243.528 24.9908 243.528 27.965C243.528 30.7407 244.27 32.9529 245.756 34.5997C247.241 36.2464 249.245 37.0698 251.77 37.0698C254.798 37.0698 257.032 36.1393 258.471 34.2778C259.91 32.4162 260.63 30.0584 260.63 27.205C260.63 24.253 259.813 22.0167 258.179 20.4966C256.545 18.9765 254.546 18.2158 252.181 18.2158Z" fill="#021526"/>
<path d="M264.443 36.4415H267.55V27.0475C267.55 24.7648 268.03 23.1885 268.99 22.3175C269.951 21.4465 271.018 21.0109 272.191 21.0109C273.48 21.0109 274.36 21.4243 274.831 22.2509C275.131 22.8026 275.28 23.6789 275.28 24.8803V36.4408H278.438V26.1373C278.438 24.307 278.878 23.0005 279.759 22.2176C280.639 21.4347 281.689 21.0436 282.908 21.0436C283.794 21.0436 284.545 21.2643 285.16 21.705C285.775 22.1464 286.083 22.9567 286.083 24.1366V36.4415H289.311V24.6492C289.311 23.0841 289.07 21.8376 288.586 20.9117C287.689 19.1918 285.998 18.3312 283.512 18.3312C282.35 18.3312 281.303 18.5604 280.371 19.0175C279.439 19.4752 278.628 20.1778 277.938 21.1259C277.524 20.3541 277.064 19.7697 276.558 19.3727C275.661 18.6786 274.475 18.3306 273.003 18.3306C271.703 18.3306 270.54 18.6675 269.517 19.3394C268.919 19.7364 268.251 20.3704 267.515 21.2414V18.7276H264.444V36.4415H264.443Z" fill="#021526"/>
</svg>
