<svg width="139" height="47" viewBox="0 0 139 47" fill="none" xmlns="http://www.w3.org/2000/svg">
<path d="M46.9244 0V7.99691H44.6274V2.29533H2.297V17.8008C2.297 29.0326 9.14273 37.8379 23.039 44.2883L23.4622 44.4831L23.8855 44.2883C30.653 41.147 35.7483 37.4471 39.1951 33.1805L42.0771 33.1801C38.3341 38.4466 32.4329 42.9156 24.4061 46.5757L23.9315 46.79L23.4622 47L22.9929 46.79C7.88956 40.033 0.155492 30.4697 0.00232088 18.1742L0 17.8008V0H46.9244ZM15.8396 14.6511V21.8743C15.8396 22.1888 15.8664 22.4979 15.92 22.8016C15.9736 23.1052 16.0862 23.3737 16.2578 23.6068C16.4293 23.84 16.6679 24.0298 16.9735 24.1762C17.2791 24.3227 17.6892 24.3959 18.2039 24.3959C19.1046 24.3959 19.7265 24.1925 20.0696 23.7858C20.4127 23.3791 20.5843 22.7419 20.5843 21.8743V14.6511H23.1094V21.8743C23.1094 23.4469 22.6752 24.6155 21.8067 25.3801C20.9381 26.1447 19.7372 26.527 18.2039 26.527C16.6491 26.527 15.4455 26.1474 14.5931 25.3882C13.7406 24.629 13.3144 23.4577 13.3144 21.8743V14.6511H15.8396ZM53.2718 14.407C53.8187 14.407 54.3521 14.4884 54.8722 14.6511C55.3922 14.8138 55.864 15.0551 56.2875 15.375C56.7111 15.695 57.0649 16.0881 57.3491 16.5545C57.6332 17.0208 57.8128 17.5577 57.8879 18.1651H56.7942C56.6977 17.7204 56.5395 17.3218 56.3197 16.9693C56.0999 16.6168 55.8318 16.3213 55.5155 16.0827C55.1992 15.8441 54.8507 15.6624 54.4701 15.5377C54.0894 15.413 53.69 15.3506 53.2718 15.3506C52.5105 15.3506 51.8565 15.497 51.3096 15.7899C50.7628 16.0827 50.3151 16.4704 49.9666 16.9531C49.6181 17.4357 49.3608 17.9807 49.1946 18.588C49.0284 19.1954 48.9453 19.819 48.9453 20.4589C48.9453 21.088 49.0284 21.7089 49.1946 22.3216C49.3608 22.9344 49.6181 23.4821 49.9666 23.9648C50.3151 24.4474 50.7628 24.8351 51.3096 25.1279C51.8565 25.4208 52.5105 25.5672 53.2718 25.5672C53.808 25.5672 54.2905 25.4696 54.7194 25.2744C55.1483 25.0791 55.5182 24.8134 55.8291 24.4772C56.1401 24.141 56.3921 23.7478 56.5851 23.2978C56.7781 22.8477 56.9014 22.3623 56.955 21.8417H58.0487C57.9736 22.5575 57.8074 23.2028 57.5501 23.7777C57.2928 24.3525 56.9604 24.8405 56.5529 25.2418C56.1455 25.6431 55.6656 25.9522 55.1134 26.1691C54.5612 26.386 53.9474 26.4945 53.2718 26.4945C52.3711 26.4945 51.5804 26.3291 50.8995 25.9983C50.2186 25.6675 49.653 25.2256 49.2026 24.6724C48.7523 24.1193 48.4145 23.4794 48.1894 22.7528C47.9642 22.0261 47.8516 21.2615 47.8516 20.4589C47.8516 19.6563 47.9642 18.8917 48.1894 18.1651C48.4145 17.4384 48.7523 16.7958 49.2026 16.2372C49.653 15.6787 50.2186 15.234 50.8995 14.9032C51.5804 14.5724 52.3711 14.407 53.2718 14.407ZM131.167 14.6511V21.8417C131.167 22.5142 131.242 23.0863 131.392 23.558C131.543 24.0298 131.762 24.4148 132.052 24.7131C132.341 25.0114 132.695 25.2283 133.113 25.3638C133.532 25.4994 134.003 25.5672 134.529 25.5672C135.065 25.5672 135.542 25.4994 135.96 25.3638C136.378 25.2283 136.732 25.0114 137.022 24.7131C137.311 24.4148 137.531 24.0298 137.681 23.558C137.831 23.0863 137.906 22.5142 137.906 21.8417V14.6511H139V22.0858C139 22.6823 138.917 23.2489 138.751 23.7858C138.585 24.3227 138.322 24.7917 137.963 25.193C137.603 25.5943 137.142 25.9115 136.579 26.1447C136.016 26.3779 135.333 26.4945 134.529 26.4945C133.735 26.4945 133.057 26.3779 132.494 26.1447C131.931 25.9115 131.47 25.5943 131.111 25.193C130.752 24.7917 130.489 24.3227 130.323 23.7858C130.157 23.2489 130.074 22.6823 130.074 22.0858V14.6511H131.167ZM27.6308 14.6511L29.8825 18.3603L32.2146 14.6511H34.981L31.2979 20.1986L35.3027 26.2667H32.295L29.786 22.2484L27.2287 26.2667H24.3979L28.4028 20.1823L24.7035 14.6511H27.6308ZM42.5779 14.6511L47.0814 26.2667H45.9073L44.508 22.6551H39.2808L37.8976 26.2667H36.7395L41.3556 14.6511H42.5779ZM65.1667 14.6511L69.6701 26.2667H68.496L67.0967 22.6551H61.8695L60.4863 26.2667H59.3283L63.9443 14.6511H65.1667ZM75.5496 14.6511C77.2974 14.6945 78.6136 15.1906 79.4982 16.1396C80.3828 17.0886 80.8251 18.5284 80.8251 20.4589C80.8251 22.3894 80.3828 23.8292 79.4982 24.7782C78.6136 25.7272 77.2974 26.2234 75.5496 26.2667H71.5769V14.6511H75.5496ZM90.8488 14.6511V15.5946H84.0132V19.7919H90.4146V20.7355H84.0132V25.3232H90.9292V26.2667H82.9195V14.6511H90.8488ZM124.517 14.6511C124.989 14.6511 125.437 14.7107 125.86 14.83C126.284 14.9493 126.654 15.131 126.97 15.375C127.287 15.619 127.539 15.9336 127.726 16.3186C127.914 16.7036 128.008 17.1564 128.008 17.677C128.008 18.4145 127.82 19.0544 127.445 19.5967C127.069 20.139 126.512 20.486 125.772 20.6379V20.6704C126.147 20.7246 126.458 20.8249 126.705 20.9714C126.951 21.1178 127.153 21.3049 127.308 21.5326C127.463 21.7604 127.576 22.0234 127.646 22.3216C127.715 22.6199 127.761 22.9426 127.782 23.2896C127.793 23.4848 127.804 23.7234 127.815 24.0054C127.825 24.2874 127.847 24.5721 127.879 24.8595C127.911 25.1469 127.962 25.4181 128.032 25.6729C128.101 25.9278 128.195 26.1257 128.313 26.2667H127.107C127.043 26.1583 126.992 26.0254 126.954 25.8682C126.917 25.7109 126.89 25.5482 126.874 25.3801C126.858 25.212 126.844 25.0466 126.834 24.8839C126.823 24.7212 126.812 24.5802 126.801 24.4609C126.78 24.0488 126.745 23.6394 126.697 23.2327C126.649 22.826 126.547 22.4626 126.391 22.1427C126.236 21.8227 126.011 21.5652 125.716 21.3699C125.421 21.1747 125.016 21.088 124.501 21.1096H120.352V26.2667H119.258V14.6511H124.517ZM94.8412 14.6511L98.653 24.8351L102.61 14.6511H104.218V26.2667H103.124V16.2291H103.092L99.1677 26.2667H98.1383L94.3587 16.2291H94.3265V26.2667H93.2328V14.6511H94.8412ZM107.083 14.6511L110.862 20.5402L114.626 14.6511H115.929L111.393 21.4838V26.2667H110.299V21.4838L105.796 14.6511H107.083ZM116.608 24.5423V26.2667H115.257V24.5423H116.608ZM75.0028 15.5946H72.6706V25.3232H75.0028C75.8284 25.3232 76.5388 25.2337 77.1339 25.0547C77.729 24.8758 78.2195 24.5911 78.6055 24.2006C78.9915 23.8102 79.2757 23.3059 79.458 22.6877C79.6402 22.0695 79.7314 21.3266 79.7314 20.4589C79.7314 19.5913 79.6402 18.8483 79.458 18.2301C79.2757 17.6119 78.9915 17.1076 78.6055 16.7172C78.2195 16.3267 77.729 16.042 77.1339 15.8631C76.5388 15.6841 75.8284 15.5946 75.0028 15.5946ZM41.9185 15.7573L39.6185 21.7116H44.138L41.9185 15.7573ZM64.5072 15.7573L62.2072 21.7116H66.7268L64.5072 15.7573ZM124.437 15.5946H120.352V20.1661H124.437C124.769 20.1661 125.086 20.1146 125.386 20.0115C125.686 19.9085 125.949 19.7594 126.174 19.5641C126.399 19.3689 126.579 19.133 126.713 18.8565C126.847 18.5799 126.914 18.2627 126.914 17.9048C126.914 17.1889 126.71 16.625 126.303 16.2128C125.895 15.8007 125.273 15.5946 124.437 15.5946Z" fill="#021526"/>
</svg>
