<svg width="185" height="62" viewBox="0 0 185 62" fill="none" xmlns="http://www.w3.org/2000/svg">
<path d="M62.4534 0V10.5491H59.3962V3.02788H3.05716V23.4819C3.05716 38.2983 12.1684 49.9138 30.6634 58.4229L31.2267 58.6798L31.79 58.4229C40.7971 54.279 47.5786 49.3983 52.1661 43.77L56.0019 43.7695C51.0203 50.7168 43.1661 56.612 32.483 61.4402L31.8513 61.723L31.2267 62L30.6021 61.723C10.5005 52.8094 0.20695 40.1941 0.00308894 23.9745L0 23.4819V0H62.4534ZM21.0815 19.3269V28.8554C21.0815 29.2703 21.1171 29.6781 21.1885 30.0787C21.2598 30.4793 21.4097 30.8333 21.638 31.141C21.8664 31.4486 22.1839 31.6989 22.5906 31.8921C22.9973 32.0852 23.5432 32.1818 24.2282 32.1818C25.427 32.1818 26.2547 31.9135 26.7114 31.377C27.168 30.8405 27.3964 30 27.3964 28.8554V19.3269H30.7572V28.8554C30.7572 30.9299 30.1792 32.4715 29.0232 33.4801C27.8673 34.4888 26.269 34.9931 24.2282 34.9931C22.1589 34.9931 20.557 34.4924 19.4225 33.4909C18.2879 32.4894 17.7206 30.9442 17.7206 28.8554V19.3269H21.0815ZM70.9014 19.005C71.6292 19.005 72.3391 19.1123 73.0313 19.3269C73.7234 19.5416 74.3514 19.8599 74.9151 20.2819C75.4788 20.704 75.9497 21.2226 76.3279 21.8378C76.7061 22.453 76.9451 23.1612 77.045 23.9624H75.5894C75.4609 23.3758 75.2504 22.85 74.9579 22.3851C74.6653 21.9201 74.3085 21.5302 73.8875 21.2155C73.4666 20.9007 73.0028 20.6611 72.4961 20.4965C71.9895 20.332 71.4579 20.2497 70.9014 20.2497C69.8881 20.2497 69.0176 20.4429 68.2898 20.8292C67.5619 21.2155 66.9661 21.7269 66.5023 22.3636C66.0385 23.0003 65.696 23.7192 65.4748 24.5204C65.2536 25.3216 65.143 26.1442 65.143 26.9883C65.143 27.8182 65.2536 28.6372 65.4748 29.4456C65.696 30.2539 66.0385 30.9764 66.5023 31.6131C66.9661 32.2497 67.5619 32.7612 68.2898 33.1475C69.0176 33.5338 69.8881 33.7269 70.9014 33.7269C71.6149 33.7269 72.2571 33.5982 72.8279 33.3407C73.3988 33.0831 73.8911 32.7326 74.305 32.2891C74.7188 31.8456 75.0542 31.3269 75.3111 30.7332C75.568 30.1395 75.7321 29.4992 75.8034 28.8125H77.2591C77.1592 29.7568 76.938 30.608 76.5955 31.3663C76.253 32.1246 75.8106 32.7684 75.2683 33.2977C74.726 33.8271 74.0873 34.2348 73.3524 34.521C72.6174 34.8071 71.8004 34.9502 70.9014 34.9502C69.7026 34.9502 68.6501 34.732 67.7439 34.2956C66.8377 33.8593 66.0849 33.2763 65.4855 32.5466C64.8861 31.817 64.4366 30.9728 64.1369 30.0143C63.8372 29.0557 63.6874 28.0471 63.6874 26.9883C63.6874 25.9296 63.8372 24.921 64.1369 23.9624C64.4366 23.0038 64.8861 22.1562 65.4855 21.4193C66.0849 20.6825 66.8377 20.096 67.7439 19.6596C68.6501 19.2232 69.7026 19.005 70.9014 19.005ZM174.575 19.3269V28.8125C174.575 29.6995 174.675 30.4542 174.875 31.0766C175.075 31.6989 175.367 32.2068 175.752 32.6003C176.138 32.9937 176.609 33.2798 177.165 33.4587C177.722 33.6375 178.35 33.7269 179.049 33.7269C179.763 33.7269 180.398 33.6375 180.954 33.4587C181.511 33.2798 181.982 32.9937 182.367 32.6003C182.752 32.2068 183.045 31.6989 183.245 31.0766C183.444 30.4542 183.544 29.6995 183.544 28.8125V19.3269H185V29.1344C185 29.9213 184.889 30.6688 184.668 31.377C184.447 32.0852 184.097 32.704 183.619 33.2334C183.141 33.7627 182.528 34.1812 181.778 34.4888C181.029 34.7964 180.119 34.9502 179.049 34.9502C177.993 34.9502 177.09 34.7964 176.341 34.4888C175.592 34.1812 174.978 33.7627 174.5 33.2334C174.022 32.704 173.672 32.0852 173.451 31.377C173.23 30.6688 173.119 29.9213 173.119 29.1344V19.3269H174.575ZM36.7747 19.3269L39.7716 24.2199L42.8756 19.3269H46.5575L41.6554 26.645L46.9856 34.6497H42.9826L39.6432 29.349L36.2396 34.6497H32.4721L37.8023 26.6235L32.8788 19.3269H36.7747ZM56.6685 19.3269L62.6623 34.6497H61.0996L59.2372 29.8855H52.2801L50.4392 34.6497H48.8979L55.0416 19.3269H56.6685ZM86.7326 19.3269L92.7264 34.6497H91.1637L89.3014 29.8855H82.3443L80.5033 34.6497H78.9621L85.1057 19.3269H86.7326ZM100.552 19.3269C102.878 19.3842 104.63 20.0387 105.807 21.2906C106.984 22.5425 107.573 24.4417 107.573 26.9883C107.573 29.535 106.984 31.4342 105.807 32.6861C104.63 33.938 102.878 34.5925 100.552 34.6497H95.2642V19.3269H100.552ZM120.914 19.3269V20.5717H111.816V26.1085H120.336V27.3532H111.816V33.405H121.021V34.6497H110.361V19.3269H120.914ZM165.725 19.3269C166.353 19.3269 166.948 19.4056 167.512 19.563C168.076 19.7204 168.568 19.96 168.989 20.2819C169.41 20.6039 169.746 21.0187 169.995 21.5266C170.245 22.0345 170.37 22.6319 170.37 23.3186C170.37 24.2915 170.12 25.1356 169.621 25.8509C169.121 26.5663 168.379 27.0241 167.394 27.2244V27.2673C167.894 27.3389 168.308 27.4712 168.636 27.6644C168.964 27.8575 169.232 28.1043 169.439 28.4047C169.646 28.7052 169.795 29.0521 169.888 29.4456C169.981 29.839 170.042 30.2646 170.07 30.7225C170.084 30.98 170.099 31.2947 170.113 31.6667C170.127 32.0387 170.156 32.4143 170.199 32.7934C170.241 33.1725 170.309 33.5302 170.402 33.8664C170.495 34.2026 170.62 34.4638 170.777 34.6497H169.171C169.086 34.5067 169.018 34.3314 168.968 34.124C168.918 33.9165 168.882 33.7019 168.861 33.4801C168.839 33.2584 168.821 33.0402 168.807 32.8256C168.793 32.611 168.779 32.425 168.764 32.2676C168.736 31.724 168.689 31.1839 168.625 30.6474C168.561 30.1108 168.425 29.6316 168.219 29.2095C168.012 28.7874 167.712 28.4477 167.319 28.1901C166.927 27.9326 166.388 27.8182 165.703 27.8468H160.18V34.6497H158.725V19.3269H165.725ZM126.227 19.3269L131.301 32.7612L136.567 19.3269H138.707V34.6497H137.252V21.4086H137.209L131.986 34.6497H130.616L125.585 21.4086H125.542V34.6497H124.087V19.3269H126.227ZM142.52 19.3269L147.551 27.0956L152.56 19.3269H154.294L148.257 28.3404V34.6497H146.801V28.3404L140.808 19.3269H142.52ZM155.197 32.3749V34.6497H153.399V32.3749H155.197ZM99.8238 20.5717H96.7199V33.405H99.8238C100.923 33.405 101.868 33.287 102.66 33.0509C103.452 32.8149 104.105 32.4393 104.619 31.9243C105.133 31.4092 105.511 30.7439 105.753 29.9284C105.996 29.1129 106.117 28.1329 106.117 26.9883C106.117 25.8438 105.996 24.8638 105.753 24.0483C105.511 23.2328 105.133 22.5675 104.619 22.0524C104.105 21.5374 103.452 21.1618 102.66 20.9258C101.868 20.6897 100.923 20.5717 99.8238 20.5717ZM55.7908 20.7863L52.7297 28.6408H58.7449L55.7908 20.7863ZM85.8549 20.7863L82.7938 28.6408H88.809L85.8549 20.7863ZM165.618 20.5717H160.18V26.6021H165.618C166.06 26.6021 166.481 26.5341 166.881 26.3982C167.28 26.2623 167.63 26.0655 167.93 25.808C168.229 25.5505 168.468 25.2393 168.647 24.8745C168.825 24.5097 168.914 24.0912 168.914 23.619C168.914 22.6748 168.643 21.9308 168.101 21.3872C167.559 20.8435 166.731 20.5717 165.618 20.5717Z" fill="#021526"/>
</svg>
