<svg width="107" height="36" viewBox="0 0 107 36" fill="none" xmlns="http://www.w3.org/2000/svg">
<path d="M1.73828 13.391V1.72656H33.7738V13.391C33.7738 21.8404 28.593 28.4645 18.0764 33.3171L17.756 33.4636C7.02429 28.5982 1.73828 21.9258 1.73828 13.391Z" fill="#FFFF00"/>
<path d="M35.5123 0V6.01592H33.7739V1.72673H1.73836V13.3912C1.73836 21.8406 6.91918 28.4647 17.4358 33.3172L17.7561 33.4637L18.0765 33.3172C23.198 30.954 27.0542 28.1707 29.6627 24.961L31.8438 24.9607C29.0112 28.9226 24.5451 32.2845 18.4705 35.0379L18.1113 35.1992L17.7561 35.3571L17.401 35.1992C5.97079 30.116 0.117676 22.9218 0.00175644 13.6721L0 13.3912V0H35.5123ZM11.9873 11.0217V16.4556C11.9873 16.6922 12.0076 16.9247 12.0482 17.1532C12.0888 17.3816 12.174 17.5835 12.3038 17.759C12.4337 17.9344 12.6142 18.0772 12.8455 18.1873C13.0767 18.2974 13.3871 18.3525 13.7766 18.3525C14.4583 18.3525 14.9289 18.1995 15.1886 17.8936C15.4483 17.5876 15.5781 17.1083 15.5781 16.4556V11.0217H17.4891V16.4556C17.4891 17.6386 17.1605 18.5177 16.5032 19.0929C15.8459 19.6682 14.9371 19.9558 13.7766 19.9558C12.6 19.9558 11.6891 19.6702 11.044 19.0991C10.3989 18.5279 10.0763 17.6468 10.0763 16.4556V11.0217H11.9873ZM40.3159 10.8381C40.7298 10.8381 41.1335 10.8993 41.5271 11.0217C41.9206 11.1441 42.2777 11.3256 42.5982 11.5663C42.9187 11.807 43.1865 12.1028 43.4016 12.4536C43.6166 12.8044 43.7525 13.2083 43.8093 13.6652H42.9816C42.9086 13.3307 42.7889 13.0308 42.6226 12.7657C42.4562 12.5005 42.2533 12.2782 42.0139 12.0987C41.7746 11.9192 41.5108 11.7825 41.2228 11.6887C40.9347 11.5949 40.6324 11.548 40.3159 11.548C39.7398 11.548 39.2448 11.6581 38.8309 11.8784C38.4171 12.0987 38.0783 12.3904 37.8146 12.7534C37.5508 13.1165 37.3561 13.5265 37.2303 13.9834C37.1045 14.4403 37.0416 14.9094 37.0416 15.3908C37.0416 15.864 37.1045 16.3311 37.2303 16.7921C37.3561 17.2531 37.5508 17.6651 37.8146 18.0282C38.0783 18.3913 38.4171 18.683 38.8309 18.9032C39.2448 19.1235 39.7398 19.2337 40.3159 19.2337C40.7217 19.2337 41.0868 19.1603 41.4114 19.0134C41.736 18.8665 42.016 18.6666 42.2513 18.4137C42.4866 18.1608 42.6773 17.865 42.8234 17.5264C42.9695 17.1878 43.0628 16.8227 43.1034 16.4311H43.9311C43.8743 16.9696 43.7485 17.455 43.5537 17.8875C43.359 18.3199 43.1074 18.687 42.7991 18.9889C42.4907 19.2908 42.1276 19.5233 41.7096 19.6865C41.2917 19.8497 40.8272 19.9313 40.3159 19.9313C39.6343 19.9313 39.0358 19.8069 38.5206 19.558C38.0053 19.3092 37.5772 18.9767 37.2364 18.5606C36.8956 18.1445 36.64 17.6631 36.4695 17.1164C36.2991 16.5698 36.2139 15.9946 36.2139 15.3908C36.2139 14.7871 36.2991 14.2119 36.4695 13.6652C36.64 13.1186 36.8956 12.6351 37.2364 12.215C37.5772 11.7948 38.0053 11.4603 38.5206 11.2114C39.0358 10.9626 39.6343 10.8381 40.3159 10.8381ZM99.2669 11.0217V16.4311C99.2669 16.9369 99.3237 17.3673 99.4373 17.7222C99.5509 18.0772 99.7173 18.3668 99.9364 18.5912C100.155 18.8155 100.423 18.9787 100.74 19.0807C101.056 19.1827 101.413 19.2337 101.811 19.2337C102.217 19.2337 102.578 19.1827 102.894 19.0807C103.211 18.9787 103.478 18.8155 103.698 18.5912C103.917 18.3668 104.083 18.0772 104.197 17.7222C104.31 17.3673 104.367 16.9369 104.367 16.4311V11.0217H105.195V16.6147C105.195 17.0634 105.132 17.4897 105.006 17.8936C104.88 18.2974 104.681 18.6503 104.41 18.9522C104.138 19.2541 103.789 19.4927 103.363 19.6681C102.937 19.8436 102.419 19.9313 101.811 19.9313C101.21 19.9313 100.697 19.8436 100.271 19.6681C99.8451 19.4927 99.4961 19.2541 99.2243 18.9522C98.9525 18.6503 98.7536 18.2974 98.6279 17.8936C98.5021 17.4897 98.4392 17.0634 98.4392 16.6147V11.0217H99.2669ZM20.9109 11.0217L22.615 13.8121L24.3799 11.0217H26.4735L23.6861 15.195L26.717 19.7599H24.4408L22.5419 16.737L20.6066 19.7599H18.4643L21.4951 15.1828L18.6955 11.0217H20.9109ZM32.2228 11.0217L35.631 19.7599H34.7425L33.6835 17.043H29.7275L28.6807 19.7599H27.8043L31.2977 11.0217H32.2228ZM49.3179 11.0217L52.7261 19.7599H51.8375L50.7786 17.043H46.8226L45.7758 19.7599H44.8994L48.3928 11.0217H49.3179ZM57.1757 11.0217C58.4984 11.0543 59.4945 11.4276 60.1639 12.1415C60.8334 12.8554 61.1681 13.9385 61.1681 15.3908C61.1681 16.8431 60.8334 17.9262 60.1639 18.6401C59.4945 19.354 58.4984 19.7273 57.1757 19.7599H54.1692V11.0217H57.1757ZM68.7541 11.0217V11.7315H63.5809V14.889H68.4254V15.5989H63.5809V19.0501H68.8149V19.7599H62.7532V11.0217H68.7541ZM94.2344 11.0217C94.5915 11.0217 94.9302 11.0666 95.2508 11.1563C95.5713 11.2461 95.8513 11.3827 96.0907 11.5663C96.33 11.7499 96.5207 11.9865 96.6627 12.2761C96.8048 12.5658 96.8758 12.9064 96.8758 13.2981C96.8758 13.8529 96.7337 14.3342 96.4497 14.7422C96.1657 15.1501 95.7438 15.4112 95.1838 15.5254V15.5499C95.4678 15.5907 95.7032 15.6662 95.8898 15.7763C96.0765 15.8865 96.2286 16.0272 96.3463 16.1986C96.4639 16.3699 96.5491 16.5677 96.6019 16.7921C96.6546 17.0165 96.6891 17.2592 96.7053 17.5203C96.7135 17.6672 96.7216 17.8467 96.7297 18.0588C96.7378 18.2709 96.754 18.4851 96.7784 18.7013C96.8027 18.9175 96.8413 19.1215 96.894 19.3132C96.9468 19.505 97.0178 19.6539 97.107 19.7599H96.1941C96.1454 19.6783 96.1069 19.5784 96.0785 19.4601C96.0501 19.3418 96.0298 19.2194 96.0176 19.0929C96.0054 18.9665 95.9953 18.8421 95.9872 18.7197C95.9791 18.5973 95.971 18.4912 95.9628 18.4015C95.9466 18.0914 95.9202 17.7834 95.8837 17.4775C95.8472 17.1715 95.7701 16.8982 95.6525 16.6575C95.5348 16.4168 95.3644 16.223 95.1412 16.0762C94.9181 15.9293 94.6117 15.864 94.2222 15.8804H91.0818V19.7599H90.2541V11.0217H94.2344ZM71.7755 11.0217L74.6603 18.683L77.6546 11.0217H78.8718V19.7599H78.0441V12.2088H78.0198L75.0498 19.7599H74.2708L71.4103 12.2088H71.386V19.7599H70.5583V11.0217H71.7755ZM81.0398 11.0217L83.9003 15.452L86.7485 11.0217H87.7345L84.302 16.1618V19.7599H83.4742V16.1618L80.066 11.0217H81.0398ZM88.2484 18.4627V19.7599H87.226V18.4627H88.2484ZM56.7618 11.7315H54.9969V19.0501H56.7618C57.3867 19.0501 57.9243 18.9828 58.3746 18.8482C58.825 18.7136 59.1963 18.4994 59.4884 18.2057C59.7805 17.9119 59.9956 17.5325 60.1335 17.0675C60.2715 16.6024 60.3404 16.0435 60.3404 15.3908C60.3404 14.7381 60.2715 14.1792 60.1335 13.7142C59.9956 13.2491 59.7805 12.8697 59.4884 12.576C59.1963 12.2823 58.825 12.0681 58.3746 11.9335C57.9243 11.7988 57.3867 11.7315 56.7618 11.7315ZM31.7238 11.8539L29.9832 16.3332H33.4035L31.7238 11.8539ZM48.8188 11.8539L47.0782 16.3332H50.4986L48.8188 11.8539ZM94.1735 11.7315H91.0818V15.1705H94.1735C94.4251 15.1705 94.6645 15.1318 94.8917 15.0543C95.1189 14.9768 95.3177 14.8646 95.4881 14.7177C95.6585 14.5708 95.7945 14.3934 95.8959 14.1853C95.9973 13.9773 96.0481 13.7386 96.0481 13.4694C96.0481 12.9309 95.8939 12.5066 95.5855 12.1966C95.2772 11.8866 94.8065 11.7315 94.1735 11.7315Z" fill="black"/>
</svg>
